G04 #@! TF.GenerationSoftware,KiCad,Pcbnew,(5.1.5-0-10_14)*
G04 #@! TF.CreationDate,2019-12-18T22:01:42+01:00*
G04 #@! TF.ProjectId,ghost,67686f73-742e-46b6-9963-61645f706362,v1.0.0*
G04 #@! TF.SameCoordinates,Original*
G04 #@! TF.FileFunction,Legend,Top*
G04 #@! TF.FilePolarity,Positive*
%FSLAX46Y46*%
G04 Gerber Fmt 4.6, Leading zero omitted, Abs format (unit mm)*
G04 Created by KiCad (PCBNEW (5.1.5-0-10_14)) date 2019-12-18 22:01:42*
%MOMM*%
%LPD*%
G04 APERTURE LIST*
%ADD10C,0.150000*%
%ADD11C,0.100000*%
%ADD12C,0.120000*%
%ADD13C,0.203200*%
G04 APERTURE END LIST*
D10*
X175164952Y-122658714D02*
X175164952Y-123468238D01*
X175117333Y-123563476D01*
X175069714Y-123611095D01*
X174974476Y-123658714D01*
X174831619Y-123658714D01*
X174736380Y-123611095D01*
X175164952Y-123277761D02*
X175069714Y-123325380D01*
X174879238Y-123325380D01*
X174784000Y-123277761D01*
X174736380Y-123230142D01*
X174688761Y-123134904D01*
X174688761Y-122849190D01*
X174736380Y-122753952D01*
X174784000Y-122706333D01*
X174879238Y-122658714D01*
X175069714Y-122658714D01*
X175164952Y-122706333D01*
X175641142Y-123325380D02*
X175641142Y-122325380D01*
X176069714Y-123325380D02*
X176069714Y-122801571D01*
X176022095Y-122706333D01*
X175926857Y-122658714D01*
X175784000Y-122658714D01*
X175688761Y-122706333D01*
X175641142Y-122753952D01*
X176688761Y-123325380D02*
X176593523Y-123277761D01*
X176545904Y-123230142D01*
X176498285Y-123134904D01*
X176498285Y-122849190D01*
X176545904Y-122753952D01*
X176593523Y-122706333D01*
X176688761Y-122658714D01*
X176831619Y-122658714D01*
X176926857Y-122706333D01*
X176974476Y-122753952D01*
X177022095Y-122849190D01*
X177022095Y-123134904D01*
X176974476Y-123230142D01*
X176926857Y-123277761D01*
X176831619Y-123325380D01*
X176688761Y-123325380D01*
X177403047Y-123277761D02*
X177498285Y-123325380D01*
X177688761Y-123325380D01*
X177784000Y-123277761D01*
X177831619Y-123182523D01*
X177831619Y-123134904D01*
X177784000Y-123039666D01*
X177688761Y-122992047D01*
X177545904Y-122992047D01*
X177450666Y-122944428D01*
X177403047Y-122849190D01*
X177403047Y-122801571D01*
X177450666Y-122706333D01*
X177545904Y-122658714D01*
X177688761Y-122658714D01*
X177784000Y-122706333D01*
X178117333Y-122658714D02*
X178498285Y-122658714D01*
X178260190Y-122325380D02*
X178260190Y-123182523D01*
X178307809Y-123277761D01*
X178403047Y-123325380D01*
X178498285Y-123325380D01*
X178831619Y-123230142D02*
X178879238Y-123277761D01*
X178831619Y-123325380D01*
X178784000Y-123277761D01*
X178831619Y-123230142D01*
X178831619Y-123325380D01*
X178831619Y-122944428D02*
X178784000Y-122373000D01*
X178831619Y-122325380D01*
X178879238Y-122373000D01*
X178831619Y-122944428D01*
X178831619Y-122325380D01*
X174641142Y-124308714D02*
X174879238Y-124975380D01*
X175117333Y-124308714D01*
X176022095Y-124975380D02*
X175450666Y-124975380D01*
X175736380Y-124975380D02*
X175736380Y-123975380D01*
X175641142Y-124118238D01*
X175545904Y-124213476D01*
X175450666Y-124261095D01*
X176450666Y-124880142D02*
X176498285Y-124927761D01*
X176450666Y-124975380D01*
X176403047Y-124927761D01*
X176450666Y-124880142D01*
X176450666Y-124975380D01*
X177117333Y-123975380D02*
X177212571Y-123975380D01*
X177307809Y-124023000D01*
X177355428Y-124070619D01*
X177403047Y-124165857D01*
X177450666Y-124356333D01*
X177450666Y-124594428D01*
X177403047Y-124784904D01*
X177355428Y-124880142D01*
X177307809Y-124927761D01*
X177212571Y-124975380D01*
X177117333Y-124975380D01*
X177022095Y-124927761D01*
X176974476Y-124880142D01*
X176926857Y-124784904D01*
X176879238Y-124594428D01*
X176879238Y-124356333D01*
X176926857Y-124165857D01*
X176974476Y-124070619D01*
X177022095Y-124023000D01*
X177117333Y-123975380D01*
X177879238Y-124880142D02*
X177926857Y-124927761D01*
X177879238Y-124975380D01*
X177831619Y-124927761D01*
X177879238Y-124880142D01*
X177879238Y-124975380D01*
X178545904Y-123975380D02*
X178641142Y-123975380D01*
X178736380Y-124023000D01*
X178784000Y-124070619D01*
X178831619Y-124165857D01*
X178879238Y-124356333D01*
X178879238Y-124594428D01*
X178831619Y-124784904D01*
X178784000Y-124880142D01*
X178736380Y-124927761D01*
X178641142Y-124975380D01*
X178545904Y-124975380D01*
X178450666Y-124927761D01*
X178403047Y-124880142D01*
X178355428Y-124784904D01*
X178307809Y-124594428D01*
X178307809Y-124356333D01*
X178355428Y-124165857D01*
X178403047Y-124070619D01*
X178450666Y-124023000D01*
X178545904Y-123975380D01*
X144843619Y-119340380D02*
X145034095Y-119340380D01*
X145129333Y-119388000D01*
X145224571Y-119483238D01*
X145272190Y-119673714D01*
X145272190Y-120007047D01*
X145224571Y-120197523D01*
X145129333Y-120292761D01*
X145034095Y-120340380D01*
X144843619Y-120340380D01*
X144748380Y-120292761D01*
X144653142Y-120197523D01*
X144605523Y-120007047D01*
X144605523Y-119673714D01*
X144653142Y-119483238D01*
X144748380Y-119388000D01*
X144843619Y-119340380D01*
X146034095Y-119816571D02*
X145700761Y-119816571D01*
X145700761Y-120340380D02*
X145700761Y-119340380D01*
X146176952Y-119340380D01*
X146891238Y-119816571D02*
X146557904Y-119816571D01*
X146557904Y-120340380D02*
X146557904Y-119340380D01*
X147034095Y-119340380D01*
X149240952Y-119340380D02*
X149431428Y-119340380D01*
X149526666Y-119388000D01*
X149621904Y-119483238D01*
X149669523Y-119673714D01*
X149669523Y-120007047D01*
X149621904Y-120197523D01*
X149526666Y-120292761D01*
X149431428Y-120340380D01*
X149240952Y-120340380D01*
X149145714Y-120292761D01*
X149050476Y-120197523D01*
X149002857Y-120007047D01*
X149002857Y-119673714D01*
X149050476Y-119483238D01*
X149145714Y-119388000D01*
X149240952Y-119340380D01*
X150098095Y-120340380D02*
X150098095Y-119340380D01*
X150669523Y-120340380D01*
X150669523Y-119340380D01*
X151765047Y-113863428D02*
X152526952Y-113863428D01*
X152146000Y-114244380D02*
X152146000Y-113482476D01*
D11*
X152857200Y-113131600D02*
X152857200Y-110286800D01*
X152857200Y-105308400D02*
X152857200Y-108153200D01*
X150114000Y-113131600D02*
X152857200Y-113131600D01*
X150114000Y-105308400D02*
X152857200Y-105308400D01*
X150774400Y-109220000D02*
G75*
G03X150774400Y-109220000I-11226800J0D01*
G01*
D12*
X166180000Y-93980000D02*
G75*
G03X166180000Y-93980000I-2620000J0D01*
G01*
X163560000Y-95020000D02*
X163560000Y-96560000D01*
X163560000Y-91400000D02*
X163560000Y-92940000D01*
X163600000Y-95020000D02*
X163600000Y-96560000D01*
X163600000Y-91400000D02*
X163600000Y-92940000D01*
X163640000Y-91401000D02*
X163640000Y-92940000D01*
X163640000Y-95020000D02*
X163640000Y-96559000D01*
X163680000Y-91402000D02*
X163680000Y-92940000D01*
X163680000Y-95020000D02*
X163680000Y-96558000D01*
X163720000Y-91404000D02*
X163720000Y-92940000D01*
X163720000Y-95020000D02*
X163720000Y-96556000D01*
X163760000Y-91407000D02*
X163760000Y-92940000D01*
X163760000Y-95020000D02*
X163760000Y-96553000D01*
X163800000Y-91411000D02*
X163800000Y-92940000D01*
X163800000Y-95020000D02*
X163800000Y-96549000D01*
X163840000Y-91415000D02*
X163840000Y-92940000D01*
X163840000Y-95020000D02*
X163840000Y-96545000D01*
X163880000Y-91419000D02*
X163880000Y-92940000D01*
X163880000Y-95020000D02*
X163880000Y-96541000D01*
X163920000Y-91424000D02*
X163920000Y-92940000D01*
X163920000Y-95020000D02*
X163920000Y-96536000D01*
X163960000Y-91430000D02*
X163960000Y-92940000D01*
X163960000Y-95020000D02*
X163960000Y-96530000D01*
X164000000Y-91437000D02*
X164000000Y-92940000D01*
X164000000Y-95020000D02*
X164000000Y-96523000D01*
X164040000Y-91444000D02*
X164040000Y-92940000D01*
X164040000Y-95020000D02*
X164040000Y-96516000D01*
X164080000Y-91452000D02*
X164080000Y-92940000D01*
X164080000Y-95020000D02*
X164080000Y-96508000D01*
X164120000Y-91460000D02*
X164120000Y-92940000D01*
X164120000Y-95020000D02*
X164120000Y-96500000D01*
X164160000Y-91469000D02*
X164160000Y-92940000D01*
X164160000Y-95020000D02*
X164160000Y-96491000D01*
X164200000Y-91479000D02*
X164200000Y-92940000D01*
X164200000Y-95020000D02*
X164200000Y-96481000D01*
X164240000Y-91489000D02*
X164240000Y-92940000D01*
X164240000Y-95020000D02*
X164240000Y-96471000D01*
X164281000Y-91500000D02*
X164281000Y-92940000D01*
X164281000Y-95020000D02*
X164281000Y-96460000D01*
X164321000Y-91512000D02*
X164321000Y-92940000D01*
X164321000Y-95020000D02*
X164321000Y-96448000D01*
X164361000Y-91525000D02*
X164361000Y-92940000D01*
X164361000Y-95020000D02*
X164361000Y-96435000D01*
X164401000Y-91538000D02*
X164401000Y-92940000D01*
X164401000Y-95020000D02*
X164401000Y-96422000D01*
X164441000Y-91552000D02*
X164441000Y-92940000D01*
X164441000Y-95020000D02*
X164441000Y-96408000D01*
X164481000Y-91566000D02*
X164481000Y-92940000D01*
X164481000Y-95020000D02*
X164481000Y-96394000D01*
X164521000Y-91582000D02*
X164521000Y-92940000D01*
X164521000Y-95020000D02*
X164521000Y-96378000D01*
X164561000Y-91598000D02*
X164561000Y-92940000D01*
X164561000Y-95020000D02*
X164561000Y-96362000D01*
X164601000Y-91615000D02*
X164601000Y-92940000D01*
X164601000Y-95020000D02*
X164601000Y-96345000D01*
X164641000Y-91632000D02*
X164641000Y-92940000D01*
X164641000Y-95020000D02*
X164641000Y-96328000D01*
X164681000Y-91651000D02*
X164681000Y-92940000D01*
X164681000Y-95020000D02*
X164681000Y-96309000D01*
X164721000Y-91670000D02*
X164721000Y-92940000D01*
X164721000Y-95020000D02*
X164721000Y-96290000D01*
X164761000Y-91690000D02*
X164761000Y-92940000D01*
X164761000Y-95020000D02*
X164761000Y-96270000D01*
X164801000Y-91712000D02*
X164801000Y-92940000D01*
X164801000Y-95020000D02*
X164801000Y-96248000D01*
X164841000Y-91733000D02*
X164841000Y-92940000D01*
X164841000Y-95020000D02*
X164841000Y-96227000D01*
X164881000Y-91756000D02*
X164881000Y-92940000D01*
X164881000Y-95020000D02*
X164881000Y-96204000D01*
X164921000Y-91780000D02*
X164921000Y-92940000D01*
X164921000Y-95020000D02*
X164921000Y-96180000D01*
X164961000Y-91805000D02*
X164961000Y-92940000D01*
X164961000Y-95020000D02*
X164961000Y-96155000D01*
X165001000Y-91831000D02*
X165001000Y-92940000D01*
X165001000Y-95020000D02*
X165001000Y-96129000D01*
X165041000Y-91858000D02*
X165041000Y-92940000D01*
X165041000Y-95020000D02*
X165041000Y-96102000D01*
X165081000Y-91885000D02*
X165081000Y-92940000D01*
X165081000Y-95020000D02*
X165081000Y-96075000D01*
X165121000Y-91915000D02*
X165121000Y-92940000D01*
X165121000Y-95020000D02*
X165121000Y-96045000D01*
X165161000Y-91945000D02*
X165161000Y-92940000D01*
X165161000Y-95020000D02*
X165161000Y-96015000D01*
X165201000Y-91976000D02*
X165201000Y-92940000D01*
X165201000Y-95020000D02*
X165201000Y-95984000D01*
X165241000Y-92009000D02*
X165241000Y-92940000D01*
X165241000Y-95020000D02*
X165241000Y-95951000D01*
X165281000Y-92043000D02*
X165281000Y-92940000D01*
X165281000Y-95020000D02*
X165281000Y-95917000D01*
X165321000Y-92079000D02*
X165321000Y-92940000D01*
X165321000Y-95020000D02*
X165321000Y-95881000D01*
X165361000Y-92116000D02*
X165361000Y-92940000D01*
X165361000Y-95020000D02*
X165361000Y-95844000D01*
X165401000Y-92154000D02*
X165401000Y-92940000D01*
X165401000Y-95020000D02*
X165401000Y-95806000D01*
X165441000Y-92195000D02*
X165441000Y-92940000D01*
X165441000Y-95020000D02*
X165441000Y-95765000D01*
X165481000Y-92237000D02*
X165481000Y-92940000D01*
X165481000Y-95020000D02*
X165481000Y-95723000D01*
X165521000Y-92281000D02*
X165521000Y-92940000D01*
X165521000Y-95020000D02*
X165521000Y-95679000D01*
X165561000Y-92327000D02*
X165561000Y-92940000D01*
X165561000Y-95020000D02*
X165561000Y-95633000D01*
X165601000Y-92375000D02*
X165601000Y-95585000D01*
X165641000Y-92426000D02*
X165641000Y-95534000D01*
X165681000Y-92480000D02*
X165681000Y-95480000D01*
X165721000Y-92537000D02*
X165721000Y-95423000D01*
X165761000Y-92597000D02*
X165761000Y-95363000D01*
X165801000Y-92661000D02*
X165801000Y-95299000D01*
X165841000Y-92729000D02*
X165841000Y-95231000D01*
X165881000Y-92802000D02*
X165881000Y-95158000D01*
X165921000Y-92882000D02*
X165921000Y-95078000D01*
X165961000Y-92969000D02*
X165961000Y-94991000D01*
X166001000Y-93065000D02*
X166001000Y-94895000D01*
X166041000Y-93175000D02*
X166041000Y-94785000D01*
X166081000Y-93303000D02*
X166081000Y-94657000D01*
X166121000Y-93462000D02*
X166121000Y-94498000D01*
X166161000Y-93696000D02*
X166161000Y-94264000D01*
X160755225Y-92505000D02*
X161255225Y-92505000D01*
X161005225Y-92255000D02*
X161005225Y-92755000D01*
X168390000Y-119380000D02*
G75*
G03X168390000Y-119380000I-3270000J0D01*
G01*
X165120000Y-122610000D02*
X165120000Y-116150000D01*
X165080000Y-122610000D02*
X165080000Y-116150000D01*
X165040000Y-122610000D02*
X165040000Y-116150000D01*
X165000000Y-122608000D02*
X165000000Y-116152000D01*
X164960000Y-122607000D02*
X164960000Y-116153000D01*
X164920000Y-122604000D02*
X164920000Y-116156000D01*
X164880000Y-122602000D02*
X164880000Y-120420000D01*
X164880000Y-118340000D02*
X164880000Y-116158000D01*
X164840000Y-122598000D02*
X164840000Y-120420000D01*
X164840000Y-118340000D02*
X164840000Y-116162000D01*
X164800000Y-122595000D02*
X164800000Y-120420000D01*
X164800000Y-118340000D02*
X164800000Y-116165000D01*
X164760000Y-122591000D02*
X164760000Y-120420000D01*
X164760000Y-118340000D02*
X164760000Y-116169000D01*
X164720000Y-122586000D02*
X164720000Y-120420000D01*
X164720000Y-118340000D02*
X164720000Y-116174000D01*
X164680000Y-122581000D02*
X164680000Y-120420000D01*
X164680000Y-118340000D02*
X164680000Y-116179000D01*
X164640000Y-122575000D02*
X164640000Y-120420000D01*
X164640000Y-118340000D02*
X164640000Y-116185000D01*
X164600000Y-122569000D02*
X164600000Y-120420000D01*
X164600000Y-118340000D02*
X164600000Y-116191000D01*
X164560000Y-122562000D02*
X164560000Y-120420000D01*
X164560000Y-118340000D02*
X164560000Y-116198000D01*
X164520000Y-122555000D02*
X164520000Y-120420000D01*
X164520000Y-118340000D02*
X164520000Y-116205000D01*
X164480000Y-122547000D02*
X164480000Y-120420000D01*
X164480000Y-118340000D02*
X164480000Y-116213000D01*
X164440000Y-122539000D02*
X164440000Y-120420000D01*
X164440000Y-118340000D02*
X164440000Y-116221000D01*
X164399000Y-122530000D02*
X164399000Y-120420000D01*
X164399000Y-118340000D02*
X164399000Y-116230000D01*
X164359000Y-122521000D02*
X164359000Y-120420000D01*
X164359000Y-118340000D02*
X164359000Y-116239000D01*
X164319000Y-122511000D02*
X164319000Y-120420000D01*
X164319000Y-118340000D02*
X164319000Y-116249000D01*
X164279000Y-122501000D02*
X164279000Y-120420000D01*
X164279000Y-118340000D02*
X164279000Y-116259000D01*
X164239000Y-122490000D02*
X164239000Y-120420000D01*
X164239000Y-118340000D02*
X164239000Y-116270000D01*
X164199000Y-122478000D02*
X164199000Y-120420000D01*
X164199000Y-118340000D02*
X164199000Y-116282000D01*
X164159000Y-122466000D02*
X164159000Y-120420000D01*
X164159000Y-118340000D02*
X164159000Y-116294000D01*
X164119000Y-122454000D02*
X164119000Y-120420000D01*
X164119000Y-118340000D02*
X164119000Y-116306000D01*
X164079000Y-122441000D02*
X164079000Y-120420000D01*
X164079000Y-118340000D02*
X164079000Y-116319000D01*
X164039000Y-122427000D02*
X164039000Y-120420000D01*
X164039000Y-118340000D02*
X164039000Y-116333000D01*
X163999000Y-122413000D02*
X163999000Y-120420000D01*
X163999000Y-118340000D02*
X163999000Y-116347000D01*
X163959000Y-122398000D02*
X163959000Y-120420000D01*
X163959000Y-118340000D02*
X163959000Y-116362000D01*
X163919000Y-122382000D02*
X163919000Y-120420000D01*
X163919000Y-118340000D02*
X163919000Y-116378000D01*
X163879000Y-122366000D02*
X163879000Y-120420000D01*
X163879000Y-118340000D02*
X163879000Y-116394000D01*
X163839000Y-122350000D02*
X163839000Y-120420000D01*
X163839000Y-118340000D02*
X163839000Y-116410000D01*
X163799000Y-122332000D02*
X163799000Y-120420000D01*
X163799000Y-118340000D02*
X163799000Y-116428000D01*
X163759000Y-122314000D02*
X163759000Y-120420000D01*
X163759000Y-118340000D02*
X163759000Y-116446000D01*
X163719000Y-122296000D02*
X163719000Y-120420000D01*
X163719000Y-118340000D02*
X163719000Y-116464000D01*
X163679000Y-122276000D02*
X163679000Y-120420000D01*
X163679000Y-118340000D02*
X163679000Y-116484000D01*
X163639000Y-122256000D02*
X163639000Y-120420000D01*
X163639000Y-118340000D02*
X163639000Y-116504000D01*
X163599000Y-122236000D02*
X163599000Y-120420000D01*
X163599000Y-118340000D02*
X163599000Y-116524000D01*
X163559000Y-122214000D02*
X163559000Y-120420000D01*
X163559000Y-118340000D02*
X163559000Y-116546000D01*
X163519000Y-122192000D02*
X163519000Y-120420000D01*
X163519000Y-118340000D02*
X163519000Y-116568000D01*
X163479000Y-122170000D02*
X163479000Y-120420000D01*
X163479000Y-118340000D02*
X163479000Y-116590000D01*
X163439000Y-122146000D02*
X163439000Y-120420000D01*
X163439000Y-118340000D02*
X163439000Y-116614000D01*
X163399000Y-122122000D02*
X163399000Y-120420000D01*
X163399000Y-118340000D02*
X163399000Y-116638000D01*
X163359000Y-122096000D02*
X163359000Y-120420000D01*
X163359000Y-118340000D02*
X163359000Y-116664000D01*
X163319000Y-122070000D02*
X163319000Y-120420000D01*
X163319000Y-118340000D02*
X163319000Y-116690000D01*
X163279000Y-122044000D02*
X163279000Y-120420000D01*
X163279000Y-118340000D02*
X163279000Y-116716000D01*
X163239000Y-122016000D02*
X163239000Y-120420000D01*
X163239000Y-118340000D02*
X163239000Y-116744000D01*
X163199000Y-121987000D02*
X163199000Y-120420000D01*
X163199000Y-118340000D02*
X163199000Y-116773000D01*
X163159000Y-121958000D02*
X163159000Y-120420000D01*
X163159000Y-118340000D02*
X163159000Y-116802000D01*
X163119000Y-121928000D02*
X163119000Y-120420000D01*
X163119000Y-118340000D02*
X163119000Y-116832000D01*
X163079000Y-121896000D02*
X163079000Y-120420000D01*
X163079000Y-118340000D02*
X163079000Y-116864000D01*
X163039000Y-121864000D02*
X163039000Y-120420000D01*
X163039000Y-118340000D02*
X163039000Y-116896000D01*
X162999000Y-121830000D02*
X162999000Y-120420000D01*
X162999000Y-118340000D02*
X162999000Y-116930000D01*
X162959000Y-121796000D02*
X162959000Y-120420000D01*
X162959000Y-118340000D02*
X162959000Y-116964000D01*
X162919000Y-121760000D02*
X162919000Y-120420000D01*
X162919000Y-118340000D02*
X162919000Y-117000000D01*
X162879000Y-121723000D02*
X162879000Y-120420000D01*
X162879000Y-118340000D02*
X162879000Y-117037000D01*
X162839000Y-121685000D02*
X162839000Y-120420000D01*
X162839000Y-118340000D02*
X162839000Y-117075000D01*
X162799000Y-121645000D02*
X162799000Y-117115000D01*
X162759000Y-121604000D02*
X162759000Y-117156000D01*
X162719000Y-121562000D02*
X162719000Y-117198000D01*
X162679000Y-121517000D02*
X162679000Y-117243000D01*
X162639000Y-121472000D02*
X162639000Y-117288000D01*
X162599000Y-121424000D02*
X162599000Y-117336000D01*
X162559000Y-121375000D02*
X162559000Y-117385000D01*
X162519000Y-121324000D02*
X162519000Y-117436000D01*
X162479000Y-121270000D02*
X162479000Y-117490000D01*
X162439000Y-121214000D02*
X162439000Y-117546000D01*
X162399000Y-121156000D02*
X162399000Y-117604000D01*
X162359000Y-121094000D02*
X162359000Y-117666000D01*
X162319000Y-121030000D02*
X162319000Y-117730000D01*
X162279000Y-120961000D02*
X162279000Y-117799000D01*
X162239000Y-120889000D02*
X162239000Y-117871000D01*
X162199000Y-120812000D02*
X162199000Y-117948000D01*
X162159000Y-120730000D02*
X162159000Y-118030000D01*
X162119000Y-120642000D02*
X162119000Y-118118000D01*
X162079000Y-120545000D02*
X162079000Y-118215000D01*
X162039000Y-120439000D02*
X162039000Y-118321000D01*
X161999000Y-120320000D02*
X161999000Y-118440000D01*
X161959000Y-120182000D02*
X161959000Y-118578000D01*
X161919000Y-120013000D02*
X161919000Y-118747000D01*
X161879000Y-119782000D02*
X161879000Y-118978000D01*
X168620241Y-121219000D02*
X167990241Y-121219000D01*
X168305241Y-121534000D02*
X168305241Y-120904000D01*
X144590000Y-72680000D02*
X144746000Y-72680000D01*
X142274000Y-72680000D02*
X142430000Y-72680000D01*
X144589837Y-70078870D02*
G75*
G02X144590000Y-72160961I-1079837J-1041130D01*
G01*
X142430163Y-70078870D02*
G75*
G03X142430000Y-72160961I1079837J-1041130D01*
G01*
X144588608Y-69447665D02*
G75*
G02X144745516Y-72680000I-1078608J-1672335D01*
G01*
X142431392Y-69447665D02*
G75*
G03X142274484Y-72680000I1078608J-1672335D01*
G01*
X164910000Y-72680000D02*
X165066000Y-72680000D01*
X162594000Y-72680000D02*
X162750000Y-72680000D01*
X164909837Y-70078870D02*
G75*
G02X164910000Y-72160961I-1079837J-1041130D01*
G01*
X162750163Y-70078870D02*
G75*
G03X162750000Y-72160961I1079837J-1041130D01*
G01*
X164908608Y-69447665D02*
G75*
G02X165065516Y-72680000I-1078608J-1672335D01*
G01*
X162751392Y-69447665D02*
G75*
G03X162594484Y-72680000I1078608J-1672335D01*
G01*
D10*
X173400000Y-92430000D02*
G75*
G03X169550000Y-92380000I-1950000J-1900000D01*
G01*
D11*
X173800000Y-95580000D02*
X173950000Y-95280000D01*
X173800000Y-95580000D02*
X173500000Y-95580000D01*
X169400000Y-95580000D02*
X169100000Y-95580000D01*
X169100000Y-95580000D02*
X168950000Y-95280000D01*
D12*
X157580000Y-113570000D02*
X154840000Y-113570000D01*
X154840000Y-113570000D02*
X154840000Y-120110000D01*
X154840000Y-120110000D02*
X157580000Y-120110000D01*
X157580000Y-120110000D02*
X157580000Y-113570000D01*
X156210000Y-112800000D02*
X156210000Y-113570000D01*
X156210000Y-120880000D02*
X156210000Y-120110000D01*
X156210000Y-97560000D02*
X156210000Y-98330000D01*
X156210000Y-105640000D02*
X156210000Y-104870000D01*
X154840000Y-98330000D02*
X154840000Y-104870000D01*
X157580000Y-98330000D02*
X154840000Y-98330000D01*
X157580000Y-104870000D02*
X157580000Y-98330000D01*
X154840000Y-104870000D02*
X157580000Y-104870000D01*
X171350000Y-115030000D02*
X174090000Y-115030000D01*
X174090000Y-115030000D02*
X174090000Y-108490000D01*
X174090000Y-108490000D02*
X171350000Y-108490000D01*
X171350000Y-108490000D02*
X171350000Y-115030000D01*
X172720000Y-115800000D02*
X172720000Y-115030000D01*
X172720000Y-107720000D02*
X172720000Y-108490000D01*
X177800000Y-107720000D02*
X177800000Y-108490000D01*
X177800000Y-115800000D02*
X177800000Y-115030000D01*
X176430000Y-108490000D02*
X176430000Y-115030000D01*
X179170000Y-108490000D02*
X176430000Y-108490000D01*
X179170000Y-115030000D02*
X179170000Y-108490000D01*
X176430000Y-115030000D02*
X179170000Y-115030000D01*
X177260000Y-102970000D02*
X177260000Y-100230000D01*
X177260000Y-100230000D02*
X170720000Y-100230000D01*
X170720000Y-100230000D02*
X170720000Y-102970000D01*
X170720000Y-102970000D02*
X177260000Y-102970000D01*
X178030000Y-101600000D02*
X177260000Y-101600000D01*
X169950000Y-101600000D02*
X170720000Y-101600000D01*
X150590000Y-96620000D02*
X150590000Y-93880000D01*
X150590000Y-93880000D02*
X144050000Y-93880000D01*
X144050000Y-93880000D02*
X144050000Y-96620000D01*
X144050000Y-96620000D02*
X150590000Y-96620000D01*
X151360000Y-95250000D02*
X150590000Y-95250000D01*
X143280000Y-95250000D02*
X144050000Y-95250000D01*
X147090000Y-91440000D02*
X147860000Y-91440000D01*
X155170000Y-91440000D02*
X154400000Y-91440000D01*
X147860000Y-92810000D02*
X154400000Y-92810000D01*
X147860000Y-90070000D02*
X147860000Y-92810000D01*
X154400000Y-90070000D02*
X147860000Y-90070000D01*
X154400000Y-92810000D02*
X154400000Y-90070000D01*
D11*
X153080000Y-125290000D02*
X152580000Y-125290000D01*
X153080000Y-125290000D02*
X153080000Y-124790000D01*
X141180000Y-125290000D02*
X141680000Y-125290000D01*
X141180000Y-125290000D02*
X141180000Y-124790000D01*
X141180000Y-121090000D02*
X141680000Y-121090000D01*
X141180000Y-121090000D02*
X141180000Y-121590000D01*
X153080000Y-121090000D02*
X153080000Y-121590000D01*
X153080000Y-121090000D02*
X152580000Y-121090000D01*
D13*
X160274000Y-114300000D02*
X167386000Y-114300000D01*
X167386000Y-104140000D02*
X160274000Y-104140000D01*
X164846000Y-114300000D02*
G75*
G03X162814000Y-114300000I-1016000J0D01*
G01*
X168402000Y-114300000D02*
G75*
G03X168402000Y-114300000I-254000J0D01*
G01*
D10*
X129341714Y-99242571D02*
X129484571Y-99290190D01*
X129532190Y-99337809D01*
X129579809Y-99433047D01*
X129579809Y-99575904D01*
X129532190Y-99671142D01*
X129484571Y-99718761D01*
X129389333Y-99766380D01*
X129008380Y-99766380D01*
X129008380Y-98766380D01*
X129341714Y-98766380D01*
X129436952Y-98814000D01*
X129484571Y-98861619D01*
X129532190Y-98956857D01*
X129532190Y-99052095D01*
X129484571Y-99147333D01*
X129436952Y-99194952D01*
X129341714Y-99242571D01*
X129008380Y-99242571D01*
X129960761Y-99480666D02*
X130436952Y-99480666D01*
X129865523Y-99766380D02*
X130198857Y-98766380D01*
X130532190Y-99766380D01*
X130722666Y-98766380D02*
X131294095Y-98766380D01*
X131008380Y-99766380D02*
X131008380Y-98766380D01*
X132151238Y-99766380D02*
X131579809Y-99766380D01*
X131865523Y-99766380D02*
X131865523Y-98766380D01*
X131770285Y-98909238D01*
X131675047Y-99004476D01*
X131579809Y-99052095D01*
X163393333Y-90587142D02*
X163345714Y-90634761D01*
X163202857Y-90682380D01*
X163107619Y-90682380D01*
X162964761Y-90634761D01*
X162869523Y-90539523D01*
X162821904Y-90444285D01*
X162774285Y-90253809D01*
X162774285Y-90110952D01*
X162821904Y-89920476D01*
X162869523Y-89825238D01*
X162964761Y-89730000D01*
X163107619Y-89682380D01*
X163202857Y-89682380D01*
X163345714Y-89730000D01*
X163393333Y-89777619D01*
X164345714Y-90682380D02*
X163774285Y-90682380D01*
X164060000Y-90682380D02*
X164060000Y-89682380D01*
X163964761Y-89825238D01*
X163869523Y-89920476D01*
X163774285Y-89968095D01*
X164953333Y-124137142D02*
X164905714Y-124184761D01*
X164762857Y-124232380D01*
X164667619Y-124232380D01*
X164524761Y-124184761D01*
X164429523Y-124089523D01*
X164381904Y-123994285D01*
X164334285Y-123803809D01*
X164334285Y-123660952D01*
X164381904Y-123470476D01*
X164429523Y-123375238D01*
X164524761Y-123280000D01*
X164667619Y-123232380D01*
X164762857Y-123232380D01*
X164905714Y-123280000D01*
X164953333Y-123327619D01*
X165334285Y-123327619D02*
X165381904Y-123280000D01*
X165477142Y-123232380D01*
X165715238Y-123232380D01*
X165810476Y-123280000D01*
X165858095Y-123327619D01*
X165905714Y-123422857D01*
X165905714Y-123518095D01*
X165858095Y-123660952D01*
X165286666Y-124232380D01*
X165905714Y-124232380D01*
X142771904Y-68016380D02*
X142771904Y-67016380D01*
X143010000Y-67016380D01*
X143152857Y-67064000D01*
X143248095Y-67159238D01*
X143295714Y-67254476D01*
X143343333Y-67444952D01*
X143343333Y-67587809D01*
X143295714Y-67778285D01*
X143248095Y-67873523D01*
X143152857Y-67968761D01*
X143010000Y-68016380D01*
X142771904Y-68016380D01*
X144295714Y-68016380D02*
X143724285Y-68016380D01*
X144010000Y-68016380D02*
X144010000Y-67016380D01*
X143914761Y-67159238D01*
X143819523Y-67254476D01*
X143724285Y-67302095D01*
X163091904Y-68016380D02*
X163091904Y-67016380D01*
X163330000Y-67016380D01*
X163472857Y-67064000D01*
X163568095Y-67159238D01*
X163615714Y-67254476D01*
X163663333Y-67444952D01*
X163663333Y-67587809D01*
X163615714Y-67778285D01*
X163568095Y-67873523D01*
X163472857Y-67968761D01*
X163330000Y-68016380D01*
X163091904Y-68016380D01*
X164044285Y-67111619D02*
X164091904Y-67064000D01*
X164187142Y-67016380D01*
X164425238Y-67016380D01*
X164520476Y-67064000D01*
X164568095Y-67111619D01*
X164615714Y-67206857D01*
X164615714Y-67302095D01*
X164568095Y-67444952D01*
X163996666Y-68016380D01*
X164615714Y-68016380D01*
X171354761Y-91177619D02*
X171259523Y-91130000D01*
X171164285Y-91034761D01*
X171021428Y-90891904D01*
X170926190Y-90844285D01*
X170830952Y-90844285D01*
X170878571Y-91082380D02*
X170783333Y-91034761D01*
X170688095Y-90939523D01*
X170640476Y-90749047D01*
X170640476Y-90415714D01*
X170688095Y-90225238D01*
X170783333Y-90130000D01*
X170878571Y-90082380D01*
X171069047Y-90082380D01*
X171164285Y-90130000D01*
X171259523Y-90225238D01*
X171307142Y-90415714D01*
X171307142Y-90749047D01*
X171259523Y-90939523D01*
X171164285Y-91034761D01*
X171069047Y-91082380D01*
X170878571Y-91082380D01*
X172259523Y-91082380D02*
X171688095Y-91082380D01*
X171973809Y-91082380D02*
X171973809Y-90082380D01*
X171878571Y-90225238D01*
X171783333Y-90320476D01*
X171688095Y-90368095D01*
X158837333Y-118054380D02*
X158504000Y-117578190D01*
X158265904Y-118054380D02*
X158265904Y-117054380D01*
X158646857Y-117054380D01*
X158742095Y-117102000D01*
X158789714Y-117149619D01*
X158837333Y-117244857D01*
X158837333Y-117387714D01*
X158789714Y-117482952D01*
X158742095Y-117530571D01*
X158646857Y-117578190D01*
X158265904Y-117578190D01*
X159789714Y-118054380D02*
X159218285Y-118054380D01*
X159504000Y-118054380D02*
X159504000Y-117054380D01*
X159408761Y-117197238D01*
X159313523Y-117292476D01*
X159218285Y-117340095D01*
X158837333Y-99258380D02*
X158504000Y-98782190D01*
X158265904Y-99258380D02*
X158265904Y-98258380D01*
X158646857Y-98258380D01*
X158742095Y-98306000D01*
X158789714Y-98353619D01*
X158837333Y-98448857D01*
X158837333Y-98591714D01*
X158789714Y-98686952D01*
X158742095Y-98734571D01*
X158646857Y-98782190D01*
X158265904Y-98782190D01*
X159218285Y-98353619D02*
X159265904Y-98306000D01*
X159361142Y-98258380D01*
X159599238Y-98258380D01*
X159694476Y-98306000D01*
X159742095Y-98353619D01*
X159789714Y-98448857D01*
X159789714Y-98544095D01*
X159742095Y-98686952D01*
X159170666Y-99258380D01*
X159789714Y-99258380D01*
X172553333Y-119578380D02*
X172220000Y-119102190D01*
X171981904Y-119578380D02*
X171981904Y-118578380D01*
X172362857Y-118578380D01*
X172458095Y-118626000D01*
X172505714Y-118673619D01*
X172553333Y-118768857D01*
X172553333Y-118911714D01*
X172505714Y-119006952D01*
X172458095Y-119054571D01*
X172362857Y-119102190D01*
X171981904Y-119102190D01*
X172886666Y-118578380D02*
X173505714Y-118578380D01*
X173172380Y-118959333D01*
X173315238Y-118959333D01*
X173410476Y-119006952D01*
X173458095Y-119054571D01*
X173505714Y-119149809D01*
X173505714Y-119387904D01*
X173458095Y-119483142D01*
X173410476Y-119530761D01*
X173315238Y-119578380D01*
X173029523Y-119578380D01*
X172934285Y-119530761D01*
X172886666Y-119483142D01*
X177633333Y-119578380D02*
X177300000Y-119102190D01*
X177061904Y-119578380D02*
X177061904Y-118578380D01*
X177442857Y-118578380D01*
X177538095Y-118626000D01*
X177585714Y-118673619D01*
X177633333Y-118768857D01*
X177633333Y-118911714D01*
X177585714Y-119006952D01*
X177538095Y-119054571D01*
X177442857Y-119102190D01*
X177061904Y-119102190D01*
X178490476Y-118911714D02*
X178490476Y-119578380D01*
X178252380Y-118530761D02*
X178014285Y-119245047D01*
X178633333Y-119245047D01*
X173823333Y-104422380D02*
X173490000Y-103946190D01*
X173251904Y-104422380D02*
X173251904Y-103422380D01*
X173632857Y-103422380D01*
X173728095Y-103470000D01*
X173775714Y-103517619D01*
X173823333Y-103612857D01*
X173823333Y-103755714D01*
X173775714Y-103850952D01*
X173728095Y-103898571D01*
X173632857Y-103946190D01*
X173251904Y-103946190D01*
X174728095Y-103422380D02*
X174251904Y-103422380D01*
X174204285Y-103898571D01*
X174251904Y-103850952D01*
X174347142Y-103803333D01*
X174585238Y-103803333D01*
X174680476Y-103850952D01*
X174728095Y-103898571D01*
X174775714Y-103993809D01*
X174775714Y-104231904D01*
X174728095Y-104327142D01*
X174680476Y-104374761D01*
X174585238Y-104422380D01*
X174347142Y-104422380D01*
X174251904Y-104374761D01*
X174204285Y-104327142D01*
X139533333Y-95702380D02*
X139200000Y-95226190D01*
X138961904Y-95702380D02*
X138961904Y-94702380D01*
X139342857Y-94702380D01*
X139438095Y-94750000D01*
X139485714Y-94797619D01*
X139533333Y-94892857D01*
X139533333Y-95035714D01*
X139485714Y-95130952D01*
X139438095Y-95178571D01*
X139342857Y-95226190D01*
X138961904Y-95226190D01*
X140390476Y-94702380D02*
X140200000Y-94702380D01*
X140104761Y-94750000D01*
X140057142Y-94797619D01*
X139961904Y-94940476D01*
X139914285Y-95130952D01*
X139914285Y-95511904D01*
X139961904Y-95607142D01*
X140009523Y-95654761D01*
X140104761Y-95702380D01*
X140295238Y-95702380D01*
X140390476Y-95654761D01*
X140438095Y-95607142D01*
X140485714Y-95511904D01*
X140485714Y-95273809D01*
X140438095Y-95178571D01*
X140390476Y-95130952D01*
X140295238Y-95083333D01*
X140104761Y-95083333D01*
X140009523Y-95130952D01*
X139961904Y-95178571D01*
X139914285Y-95273809D01*
X143597333Y-91892380D02*
X143264000Y-91416190D01*
X143025904Y-91892380D02*
X143025904Y-90892380D01*
X143406857Y-90892380D01*
X143502095Y-90940000D01*
X143549714Y-90987619D01*
X143597333Y-91082857D01*
X143597333Y-91225714D01*
X143549714Y-91320952D01*
X143502095Y-91368571D01*
X143406857Y-91416190D01*
X143025904Y-91416190D01*
X143930666Y-90892380D02*
X144597333Y-90892380D01*
X144168761Y-91892380D01*
X138938095Y-123594761D02*
X139080952Y-123642380D01*
X139319047Y-123642380D01*
X139414285Y-123594761D01*
X139461904Y-123547142D01*
X139509523Y-123451904D01*
X139509523Y-123356666D01*
X139461904Y-123261428D01*
X139414285Y-123213809D01*
X139319047Y-123166190D01*
X139128571Y-123118571D01*
X139033333Y-123070952D01*
X138985714Y-123023333D01*
X138938095Y-122928095D01*
X138938095Y-122832857D01*
X138985714Y-122737619D01*
X139033333Y-122690000D01*
X139128571Y-122642380D01*
X139366666Y-122642380D01*
X139509523Y-122690000D01*
X140461904Y-123642380D02*
X139890476Y-123642380D01*
X140176190Y-123642380D02*
X140176190Y-122642380D01*
X140080952Y-122785238D01*
X139985714Y-122880476D01*
X139890476Y-122928095D01*
X163068095Y-102068380D02*
X163068095Y-102877904D01*
X163115714Y-102973142D01*
X163163333Y-103020761D01*
X163258571Y-103068380D01*
X163449047Y-103068380D01*
X163544285Y-103020761D01*
X163591904Y-102973142D01*
X163639523Y-102877904D01*
X163639523Y-102068380D01*
X164639523Y-103068380D02*
X164068095Y-103068380D01*
X164353809Y-103068380D02*
X164353809Y-102068380D01*
X164258571Y-102211238D01*
X164163333Y-102306476D01*
X164068095Y-102354095D01*
M02*
