G04 #@! TF.GenerationSoftware,KiCad,Pcbnew,(5.1.5-0-10_14)*
G04 #@! TF.CreationDate,2019-12-18T22:01:42+01:00*
G04 #@! TF.ProjectId,ghost,67686f73-742e-46b6-9963-61645f706362,v1.0.0*
G04 #@! TF.SameCoordinates,Original*
G04 #@! TF.FileFunction,Copper,L1,Top*
G04 #@! TF.FilePolarity,Positive*
%FSLAX46Y46*%
G04 Gerber Fmt 4.6, Leading zero omitted, Abs format (unit mm)*
G04 Created by KiCad (PCBNEW (5.1.5-0-10_14)) date 2019-12-18 22:01:42*
%MOMM*%
%LPD*%
G04 APERTURE LIST*
%ADD10R,2.170000X2.170000*%
%ADD11C,2.500000*%
%ADD12R,1.600000X1.600000*%
%ADD13C,1.600000*%
%ADD14C,1.800000*%
%ADD15R,1.800000X1.800000*%
%ADD16O,1.000000X1.500000*%
%ADD17R,1.000000X1.500000*%
%ADD18O,1.600000X1.600000*%
%ADD19R,1.900000X1.900000*%
%ADD20C,1.900000*%
%ADD21C,1.524000*%
%ADD22C,0.762000*%
%ADD23C,0.254000*%
G04 APERTURE END LIST*
D10*
X132080000Y-109220000D03*
D11*
X152080000Y-109220000D03*
D12*
X162560000Y-93980000D03*
D13*
X164560000Y-93980000D03*
D12*
X166370000Y-119380000D03*
D13*
X163870000Y-119380000D03*
D14*
X143510000Y-69850000D03*
D15*
X143510000Y-72390000D03*
D14*
X163830000Y-69850000D03*
D15*
X163830000Y-72390000D03*
D16*
X171450000Y-93980000D03*
X172720000Y-93980000D03*
D17*
X170180000Y-93980000D03*
D13*
X156210000Y-111760000D03*
D18*
X156210000Y-121920000D03*
X156210000Y-96520000D03*
D13*
X156210000Y-106680000D03*
X172720000Y-116840000D03*
D18*
X172720000Y-106680000D03*
X177800000Y-106680000D03*
D13*
X177800000Y-116840000D03*
X179070000Y-101600000D03*
D18*
X168910000Y-101600000D03*
D13*
X152400000Y-95250000D03*
D18*
X142240000Y-95250000D03*
X146050000Y-91440000D03*
D13*
X156210000Y-91440000D03*
D19*
X144780000Y-123190000D03*
D20*
X147280000Y-123190000D03*
X149780000Y-123190000D03*
D21*
X167640000Y-113030000D03*
X167640000Y-110490000D03*
X167640000Y-107950000D03*
X167640000Y-105410000D03*
X160020000Y-105410000D03*
X160020000Y-107950000D03*
X160020000Y-110490000D03*
X160020000Y-113030000D03*
D22*
X147280000Y-114020000D02*
X147280000Y-123190000D01*
X152080000Y-109220000D02*
X147280000Y-114020000D01*
D23*
X157734000Y-97752000D02*
X157734000Y-100076000D01*
X161506000Y-93980000D02*
X157734000Y-97752000D01*
X162560000Y-93980000D02*
X161506000Y-93980000D01*
X157734000Y-100076000D02*
X157734000Y-98044000D01*
X168783001Y-104861359D02*
X167299642Y-103378000D01*
X168783001Y-109346999D02*
X168783001Y-104861359D01*
X167640000Y-110490000D02*
X168783001Y-109346999D01*
X157442000Y-97752000D02*
X156210000Y-96520000D01*
X157734000Y-97752000D02*
X157442000Y-97752000D01*
X166116000Y-105664000D02*
X166116000Y-103378000D01*
X163830000Y-107950000D02*
X166116000Y-105664000D01*
X160020000Y-107950000D02*
X163830000Y-107950000D01*
X166116000Y-103378000D02*
X167299642Y-103378000D01*
X166116000Y-103378000D02*
X164338000Y-103378000D01*
X164338000Y-103378000D02*
X162306000Y-101346000D01*
X162306000Y-101346000D02*
X159004000Y-101346000D01*
X159004000Y-101346000D02*
X157734000Y-100076000D01*
X177800000Y-106680000D02*
X172720000Y-106680000D01*
X177800000Y-113507882D02*
X177800000Y-107811370D01*
X177800000Y-107811370D02*
X177800000Y-106680000D01*
X171927882Y-119380000D02*
X177800000Y-113507882D01*
X166370000Y-119380000D02*
X171927882Y-119380000D01*
X171196000Y-101600000D02*
X168910000Y-101600000D01*
X172720000Y-103124000D02*
X171196000Y-101600000D01*
X172720000Y-106680000D02*
X172720000Y-103124000D01*
X172454000Y-92710000D02*
X165862000Y-92710000D01*
X165862000Y-92710000D02*
X163830000Y-90678000D01*
X172720000Y-92976000D02*
X172454000Y-92710000D01*
X172720000Y-93980000D02*
X172720000Y-92976000D01*
X144664000Y-72390000D02*
X148728000Y-68326000D01*
X143510000Y-72390000D02*
X144664000Y-72390000D01*
X165111001Y-69235119D02*
X165111001Y-72262999D01*
X164984000Y-72390000D02*
X163830000Y-72390000D01*
X164201882Y-68326000D02*
X165111001Y-69235119D01*
X165111001Y-72262999D02*
X164984000Y-72390000D01*
X148728000Y-68326000D02*
X164201882Y-68326000D01*
X163830000Y-90678000D02*
X163830000Y-72390000D01*
X142240000Y-94118630D02*
X144018000Y-92340630D01*
X142240000Y-95250000D02*
X142240000Y-94118630D01*
X144018000Y-92340630D02*
X144018000Y-75946000D01*
X142228999Y-71131001D02*
X142610001Y-70749999D01*
X142228999Y-74156999D02*
X142228999Y-71131001D01*
X142610001Y-70749999D02*
X143510000Y-69850000D01*
X144018000Y-75946000D02*
X142228999Y-74156999D01*
X163830000Y-69850000D02*
X148336000Y-69850000D01*
X148336000Y-69850000D02*
X145034000Y-73152000D01*
X145034000Y-90424000D02*
X146050000Y-91440000D01*
X145034000Y-73152000D02*
X145034000Y-90424000D01*
X171450000Y-95111370D02*
X177938630Y-101600000D01*
X177938630Y-101600000D02*
X179070000Y-101600000D01*
X171450000Y-93980000D02*
X171450000Y-95111370D01*
X156210000Y-106680000D02*
X156210000Y-111760000D01*
X158750000Y-111760000D02*
X156210000Y-111760000D01*
X160020000Y-110490000D02*
X158750000Y-111760000D01*
D22*
X154940000Y-123190000D02*
X156210000Y-121920000D01*
X149780000Y-123190000D02*
X154940000Y-123190000D01*
X156210000Y-116840000D02*
X160020000Y-113030000D01*
X156210000Y-121920000D02*
X156210000Y-116840000D01*
X160020000Y-113030000D02*
X167640000Y-105410000D01*
X152400000Y-95250000D02*
X156210000Y-91440000D01*
X156210000Y-116840000D02*
X154774999Y-115404999D01*
X154774999Y-109125197D02*
X148844000Y-103194198D01*
X154774999Y-115404999D02*
X154774999Y-109125197D01*
X148844000Y-103194198D02*
X148844000Y-98806000D01*
X148844000Y-98806000D02*
X152400000Y-95250000D01*
D23*
X169758358Y-116840000D02*
X164846000Y-111927642D01*
X172720000Y-116840000D02*
X169758358Y-116840000D01*
X164846000Y-110744000D02*
X167640000Y-107950000D01*
X164846000Y-111927642D02*
X164846000Y-110744000D01*
G36*
X180200300Y-100708683D02*
G01*
X180184637Y-100685241D01*
X179984759Y-100485363D01*
X179749727Y-100328320D01*
X179488574Y-100220147D01*
X179211335Y-100165000D01*
X178928665Y-100165000D01*
X178651426Y-100220147D01*
X178390273Y-100328320D01*
X178155241Y-100485363D01*
X178028432Y-100612172D01*
X172780766Y-95364506D01*
X172942498Y-95348577D01*
X173156446Y-95283676D01*
X173353623Y-95178284D01*
X173526449Y-95036449D01*
X173668284Y-94863623D01*
X173773676Y-94666447D01*
X173838577Y-94452499D01*
X173855000Y-94285752D01*
X173855000Y-93674249D01*
X173838577Y-93507502D01*
X173773676Y-93293554D01*
X173668284Y-93096377D01*
X173526449Y-92923551D01*
X173476482Y-92882544D01*
X173470974Y-92826622D01*
X173427402Y-92682985D01*
X173356645Y-92550608D01*
X173261422Y-92434578D01*
X173232346Y-92410716D01*
X173019284Y-92197654D01*
X172995422Y-92168578D01*
X172879392Y-92073355D01*
X172747015Y-92002598D01*
X172603378Y-91959026D01*
X172491426Y-91948000D01*
X172491423Y-91948000D01*
X172454000Y-91944314D01*
X172416577Y-91948000D01*
X166177631Y-91948000D01*
X164592000Y-90362370D01*
X164592000Y-73928072D01*
X164730000Y-73928072D01*
X164854482Y-73915812D01*
X164974180Y-73879502D01*
X165084494Y-73820537D01*
X165181185Y-73741185D01*
X165260537Y-73644494D01*
X165319502Y-73534180D01*
X165355812Y-73414482D01*
X165368072Y-73290000D01*
X165368072Y-73048731D01*
X165409392Y-73026645D01*
X165525422Y-72931422D01*
X165549285Y-72902345D01*
X165623343Y-72828286D01*
X165652423Y-72804421D01*
X165747646Y-72688391D01*
X165818403Y-72556014D01*
X165861975Y-72412377D01*
X165873001Y-72300425D01*
X165873001Y-72300422D01*
X165876687Y-72262999D01*
X165873001Y-72225576D01*
X165873001Y-69272541D01*
X165876687Y-69235118D01*
X165873001Y-69197693D01*
X165861975Y-69085741D01*
X165818403Y-68942104D01*
X165747646Y-68809727D01*
X165652423Y-68693697D01*
X165623354Y-68669841D01*
X164767166Y-67813654D01*
X164743304Y-67784578D01*
X164627274Y-67689355D01*
X164494897Y-67618598D01*
X164351260Y-67575026D01*
X164239308Y-67564000D01*
X164239305Y-67564000D01*
X164201882Y-67560314D01*
X164164459Y-67564000D01*
X148765423Y-67564000D01*
X148728000Y-67560314D01*
X148690577Y-67564000D01*
X148690574Y-67564000D01*
X148578622Y-67575026D01*
X148434985Y-67618598D01*
X148373364Y-67651535D01*
X148302607Y-67689355D01*
X148219904Y-67757228D01*
X148186578Y-67784578D01*
X148162721Y-67813648D01*
X144895609Y-71080761D01*
X144861185Y-71038815D01*
X144764494Y-70959463D01*
X144654180Y-70900498D01*
X144635873Y-70894944D01*
X144702312Y-70828505D01*
X144870299Y-70577095D01*
X144986011Y-70297743D01*
X145045000Y-70001184D01*
X145045000Y-69698816D01*
X144986011Y-69402257D01*
X144870299Y-69122905D01*
X144702312Y-68871495D01*
X144488505Y-68657688D01*
X144237095Y-68489701D01*
X143957743Y-68373989D01*
X143661184Y-68315000D01*
X143358816Y-68315000D01*
X143062257Y-68373989D01*
X142782905Y-68489701D01*
X142531495Y-68657688D01*
X142317688Y-68871495D01*
X142149701Y-69122905D01*
X142033989Y-69402257D01*
X141975000Y-69698816D01*
X141975000Y-70001184D01*
X142025799Y-70256571D01*
X141716648Y-70565722D01*
X141687578Y-70589579D01*
X141663721Y-70618649D01*
X141663720Y-70618650D01*
X141592354Y-70705609D01*
X141521598Y-70837986D01*
X141478026Y-70981623D01*
X141463313Y-71131001D01*
X141467000Y-71168434D01*
X141466999Y-74119576D01*
X141463313Y-74156999D01*
X141466999Y-74194422D01*
X141466999Y-74194424D01*
X141478025Y-74306376D01*
X141521597Y-74450013D01*
X141521598Y-74450014D01*
X141592354Y-74582391D01*
X141631982Y-74630677D01*
X141687577Y-74698421D01*
X141716653Y-74722283D01*
X143256001Y-76261632D01*
X143256000Y-92025000D01*
X141727649Y-93553351D01*
X141698579Y-93577208D01*
X141674722Y-93606278D01*
X141674721Y-93606279D01*
X141603355Y-93693238D01*
X141532599Y-93825615D01*
X141489027Y-93969252D01*
X141483052Y-94029917D01*
X141325241Y-94135363D01*
X141125363Y-94335241D01*
X140968320Y-94570273D01*
X140860147Y-94831426D01*
X140805000Y-95108665D01*
X140805000Y-95391335D01*
X140860147Y-95668574D01*
X140968320Y-95929727D01*
X141125363Y-96164759D01*
X141325241Y-96364637D01*
X141560273Y-96521680D01*
X141821426Y-96629853D01*
X142098665Y-96685000D01*
X142381335Y-96685000D01*
X142658574Y-96629853D01*
X142919727Y-96521680D01*
X143154759Y-96364637D01*
X143354637Y-96164759D01*
X143511680Y-95929727D01*
X143619853Y-95668574D01*
X143675000Y-95391335D01*
X143675000Y-95108665D01*
X143619853Y-94831426D01*
X143511680Y-94570273D01*
X143354637Y-94335241D01*
X143227828Y-94208432D01*
X144530347Y-92905913D01*
X144559422Y-92882052D01*
X144619857Y-92808411D01*
X144654645Y-92766023D01*
X144699029Y-92682985D01*
X144725402Y-92633645D01*
X144768974Y-92490008D01*
X144780000Y-92378056D01*
X144780000Y-92378053D01*
X144783686Y-92340630D01*
X144780000Y-92303207D01*
X144780000Y-92122241D01*
X144935363Y-92354759D01*
X145135241Y-92554637D01*
X145370273Y-92711680D01*
X145631426Y-92819853D01*
X145908665Y-92875000D01*
X146191335Y-92875000D01*
X146468574Y-92819853D01*
X146729727Y-92711680D01*
X146964759Y-92554637D01*
X147164637Y-92354759D01*
X147321680Y-92119727D01*
X147429853Y-91858574D01*
X147485000Y-91581335D01*
X147485000Y-91298665D01*
X147429853Y-91021426D01*
X147321680Y-90760273D01*
X147164637Y-90525241D01*
X146964759Y-90325363D01*
X146729727Y-90168320D01*
X146468574Y-90060147D01*
X146191335Y-90005000D01*
X145908665Y-90005000D01*
X145796000Y-90027411D01*
X145796000Y-73467630D01*
X148651631Y-70612000D01*
X162493024Y-70612000D01*
X162637688Y-70828505D01*
X162704127Y-70894944D01*
X162685820Y-70900498D01*
X162575506Y-70959463D01*
X162478815Y-71038815D01*
X162399463Y-71135506D01*
X162340498Y-71245820D01*
X162304188Y-71365518D01*
X162291928Y-71490000D01*
X162291928Y-73290000D01*
X162304188Y-73414482D01*
X162340498Y-73534180D01*
X162399463Y-73644494D01*
X162478815Y-73741185D01*
X162575506Y-73820537D01*
X162685820Y-73879502D01*
X162805518Y-73915812D01*
X162930000Y-73928072D01*
X163068001Y-73928072D01*
X163068000Y-90640577D01*
X163064314Y-90678000D01*
X163068000Y-90715423D01*
X163068000Y-90715425D01*
X163079026Y-90827377D01*
X163122598Y-90971014D01*
X163122599Y-90971015D01*
X163193355Y-91103392D01*
X163229130Y-91146984D01*
X163288578Y-91219422D01*
X163317654Y-91243284D01*
X164620616Y-92546247D01*
X164489488Y-92539783D01*
X164209870Y-92581213D01*
X163943708Y-92676397D01*
X163821691Y-92741616D01*
X163811185Y-92728815D01*
X163714494Y-92649463D01*
X163604180Y-92590498D01*
X163484482Y-92554188D01*
X163360000Y-92541928D01*
X161760000Y-92541928D01*
X161635518Y-92554188D01*
X161515820Y-92590498D01*
X161405506Y-92649463D01*
X161308815Y-92728815D01*
X161229463Y-92825506D01*
X161170498Y-92935820D01*
X161134188Y-93055518D01*
X161121928Y-93180000D01*
X161121928Y-93321269D01*
X161080607Y-93343355D01*
X161050997Y-93367656D01*
X160964578Y-93438578D01*
X160940716Y-93467654D01*
X157619664Y-96788706D01*
X157645000Y-96661335D01*
X157645000Y-96378665D01*
X157589853Y-96101426D01*
X157481680Y-95840273D01*
X157324637Y-95605241D01*
X157124759Y-95405363D01*
X156889727Y-95248320D01*
X156628574Y-95140147D01*
X156351335Y-95085000D01*
X156068665Y-95085000D01*
X155791426Y-95140147D01*
X155530273Y-95248320D01*
X155295241Y-95405363D01*
X155095363Y-95605241D01*
X154938320Y-95840273D01*
X154830147Y-96101426D01*
X154775000Y-96378665D01*
X154775000Y-96661335D01*
X154830147Y-96938574D01*
X154938320Y-97199727D01*
X155095363Y-97434759D01*
X155295241Y-97634637D01*
X155530273Y-97791680D01*
X155791426Y-97899853D01*
X156068665Y-97955000D01*
X156351335Y-97955000D01*
X156531527Y-97919157D01*
X156876721Y-98264352D01*
X156900578Y-98293422D01*
X156972000Y-98352037D01*
X156972001Y-98991731D01*
X156972000Y-100038576D01*
X156968314Y-100076000D01*
X156972000Y-100113423D01*
X156972000Y-100113425D01*
X156983026Y-100225377D01*
X157026598Y-100369014D01*
X157026599Y-100369015D01*
X157097355Y-100501392D01*
X157136983Y-100549678D01*
X157192578Y-100617422D01*
X157221654Y-100641284D01*
X158438720Y-101858351D01*
X158462578Y-101887422D01*
X158578608Y-101982645D01*
X158710985Y-102053402D01*
X158854622Y-102096974D01*
X158966574Y-102108000D01*
X158966576Y-102108000D01*
X159003999Y-102111686D01*
X159041422Y-102108000D01*
X161990370Y-102108000D01*
X163772720Y-103890351D01*
X163796578Y-103919422D01*
X163825648Y-103943279D01*
X163912607Y-104014645D01*
X163965765Y-104043058D01*
X164044985Y-104085402D01*
X164188622Y-104128974D01*
X164300574Y-104140000D01*
X164300577Y-104140000D01*
X164338000Y-104143686D01*
X164375423Y-104140000D01*
X165354001Y-104140000D01*
X165354000Y-105348369D01*
X163514370Y-107188000D01*
X161191005Y-107188000D01*
X161105120Y-107059465D01*
X160910535Y-106864880D01*
X160681727Y-106711995D01*
X160604485Y-106680000D01*
X160681727Y-106648005D01*
X160910535Y-106495120D01*
X161105120Y-106300535D01*
X161258005Y-106071727D01*
X161363314Y-105817490D01*
X161417000Y-105547592D01*
X161417000Y-105272408D01*
X161363314Y-105002510D01*
X161258005Y-104748273D01*
X161105120Y-104519465D01*
X160910535Y-104324880D01*
X160681727Y-104171995D01*
X160427490Y-104066686D01*
X160157592Y-104013000D01*
X159882408Y-104013000D01*
X159612510Y-104066686D01*
X159358273Y-104171995D01*
X159129465Y-104324880D01*
X158934880Y-104519465D01*
X158781995Y-104748273D01*
X158676686Y-105002510D01*
X158623000Y-105272408D01*
X158623000Y-105547592D01*
X158676686Y-105817490D01*
X158781995Y-106071727D01*
X158934880Y-106300535D01*
X159129465Y-106495120D01*
X159358273Y-106648005D01*
X159435515Y-106680000D01*
X159358273Y-106711995D01*
X159129465Y-106864880D01*
X158934880Y-107059465D01*
X158781995Y-107288273D01*
X158676686Y-107542510D01*
X158623000Y-107812408D01*
X158623000Y-108087592D01*
X158676686Y-108357490D01*
X158781995Y-108611727D01*
X158934880Y-108840535D01*
X159129465Y-109035120D01*
X159358273Y-109188005D01*
X159435515Y-109220000D01*
X159358273Y-109251995D01*
X159129465Y-109404880D01*
X158934880Y-109599465D01*
X158781995Y-109828273D01*
X158676686Y-110082510D01*
X158623000Y-110352408D01*
X158623000Y-110627592D01*
X158653159Y-110779211D01*
X158434370Y-110998000D01*
X157426707Y-110998000D01*
X157324637Y-110845241D01*
X157124759Y-110645363D01*
X156972000Y-110543293D01*
X156972000Y-107896707D01*
X157124759Y-107794637D01*
X157324637Y-107594759D01*
X157481680Y-107359727D01*
X157589853Y-107098574D01*
X157645000Y-106821335D01*
X157645000Y-106538665D01*
X157589853Y-106261426D01*
X157481680Y-106000273D01*
X157324637Y-105765241D01*
X157124759Y-105565363D01*
X156889727Y-105408320D01*
X156628574Y-105300147D01*
X156351335Y-105245000D01*
X156068665Y-105245000D01*
X155791426Y-105300147D01*
X155530273Y-105408320D01*
X155295241Y-105565363D01*
X155095363Y-105765241D01*
X154938320Y-106000273D01*
X154830147Y-106261426D01*
X154775000Y-106538665D01*
X154775000Y-106821335D01*
X154830147Y-107098574D01*
X154938320Y-107359727D01*
X155095363Y-107594759D01*
X155295241Y-107794637D01*
X155448000Y-107896707D01*
X155448000Y-108361357D01*
X149860000Y-102773358D01*
X149860000Y-99226840D01*
X152401841Y-96685000D01*
X152541335Y-96685000D01*
X152818574Y-96629853D01*
X153079727Y-96521680D01*
X153314759Y-96364637D01*
X153514637Y-96164759D01*
X153671680Y-95929727D01*
X153779853Y-95668574D01*
X153835000Y-95391335D01*
X153835000Y-95251840D01*
X156211841Y-92875000D01*
X156351335Y-92875000D01*
X156628574Y-92819853D01*
X156889727Y-92711680D01*
X157124759Y-92554637D01*
X157324637Y-92354759D01*
X157481680Y-92119727D01*
X157589853Y-91858574D01*
X157645000Y-91581335D01*
X157645000Y-91298665D01*
X157589853Y-91021426D01*
X157481680Y-90760273D01*
X157324637Y-90525241D01*
X157124759Y-90325363D01*
X156889727Y-90168320D01*
X156628574Y-90060147D01*
X156351335Y-90005000D01*
X156068665Y-90005000D01*
X155791426Y-90060147D01*
X155530273Y-90168320D01*
X155295241Y-90325363D01*
X155095363Y-90525241D01*
X154938320Y-90760273D01*
X154830147Y-91021426D01*
X154775000Y-91298665D01*
X154775000Y-91438159D01*
X152398160Y-93815000D01*
X152258665Y-93815000D01*
X151981426Y-93870147D01*
X151720273Y-93978320D01*
X151485241Y-94135363D01*
X151285363Y-94335241D01*
X151128320Y-94570273D01*
X151020147Y-94831426D01*
X150965000Y-95108665D01*
X150965000Y-95248159D01*
X148160868Y-98052292D01*
X148122105Y-98084104D01*
X147995141Y-98238810D01*
X147965951Y-98293421D01*
X147900799Y-98415313D01*
X147842702Y-98606830D01*
X147823085Y-98806000D01*
X147828001Y-98855912D01*
X147828000Y-103144296D01*
X147823085Y-103194198D01*
X147828000Y-103244099D01*
X147842702Y-103393368D01*
X147900798Y-103584884D01*
X147995140Y-103761388D01*
X148122104Y-103916094D01*
X148160872Y-103947910D01*
X151605430Y-107392468D01*
X151530166Y-107407439D01*
X151187118Y-107549534D01*
X150878382Y-107755825D01*
X150615825Y-108018382D01*
X150409534Y-108327118D01*
X150267439Y-108670166D01*
X150195000Y-109034344D01*
X150195000Y-109405656D01*
X150238552Y-109624607D01*
X146596872Y-113266288D01*
X146558104Y-113298104D01*
X146431140Y-113452810D01*
X146336798Y-113629314D01*
X146284749Y-113800896D01*
X146278702Y-113820830D01*
X146259085Y-114020000D01*
X146264000Y-114069902D01*
X146264001Y-121891986D01*
X146260537Y-121885506D01*
X146181185Y-121788815D01*
X146084494Y-121709463D01*
X145974180Y-121650498D01*
X145854482Y-121614188D01*
X145730000Y-121601928D01*
X143830000Y-121601928D01*
X143705518Y-121614188D01*
X143585820Y-121650498D01*
X143475506Y-121709463D01*
X143378815Y-121788815D01*
X143299463Y-121885506D01*
X143240498Y-121995820D01*
X143204188Y-122115518D01*
X143191928Y-122240000D01*
X143191928Y-124140000D01*
X143204188Y-124264482D01*
X143240498Y-124384180D01*
X143299463Y-124494494D01*
X143378815Y-124591185D01*
X143475506Y-124670537D01*
X143585820Y-124729502D01*
X143705518Y-124765812D01*
X143830000Y-124778072D01*
X145730000Y-124778072D01*
X145854482Y-124765812D01*
X145974180Y-124729502D01*
X146084494Y-124670537D01*
X146181185Y-124591185D01*
X146260537Y-124494494D01*
X146291814Y-124435979D01*
X146529221Y-124594609D01*
X146817673Y-124714089D01*
X147123891Y-124775000D01*
X147436109Y-124775000D01*
X147742327Y-124714089D01*
X148030779Y-124594609D01*
X148290379Y-124421150D01*
X148511150Y-124200379D01*
X148530000Y-124172168D01*
X148548850Y-124200379D01*
X148769621Y-124421150D01*
X149029221Y-124594609D01*
X149317673Y-124714089D01*
X149623891Y-124775000D01*
X149936109Y-124775000D01*
X150242327Y-124714089D01*
X150530779Y-124594609D01*
X150790379Y-124421150D01*
X151005529Y-124206000D01*
X154890098Y-124206000D01*
X154940000Y-124210915D01*
X154989902Y-124206000D01*
X155139171Y-124191298D01*
X155330687Y-124133202D01*
X155507190Y-124038860D01*
X155661896Y-123911896D01*
X155693712Y-123873128D01*
X156211840Y-123355000D01*
X156351335Y-123355000D01*
X156628574Y-123299853D01*
X156889727Y-123191680D01*
X157124759Y-123034637D01*
X157324637Y-122834759D01*
X157481680Y-122599727D01*
X157589853Y-122338574D01*
X157645000Y-122061335D01*
X157645000Y-121778665D01*
X157589853Y-121501426D01*
X157481680Y-121240273D01*
X157324637Y-121005241D01*
X157226000Y-120906604D01*
X157226000Y-120372702D01*
X163056903Y-120372702D01*
X163128486Y-120616671D01*
X163383996Y-120737571D01*
X163658184Y-120806300D01*
X163940512Y-120820217D01*
X164220130Y-120778787D01*
X164486292Y-120683603D01*
X164611514Y-120616671D01*
X164683097Y-120372702D01*
X163870000Y-119559605D01*
X163056903Y-120372702D01*
X157226000Y-120372702D01*
X157226000Y-119450512D01*
X162429783Y-119450512D01*
X162471213Y-119730130D01*
X162566397Y-119996292D01*
X162633329Y-120121514D01*
X162877298Y-120193097D01*
X163690395Y-119380000D01*
X162877298Y-118566903D01*
X162633329Y-118638486D01*
X162512429Y-118893996D01*
X162443700Y-119168184D01*
X162429783Y-119450512D01*
X157226000Y-119450512D01*
X157226000Y-118387298D01*
X163056903Y-118387298D01*
X163870000Y-119200395D01*
X164683097Y-118387298D01*
X164611514Y-118143329D01*
X164356004Y-118022429D01*
X164081816Y-117953700D01*
X163799488Y-117939783D01*
X163519870Y-117981213D01*
X163253708Y-118076397D01*
X163128486Y-118143329D01*
X163056903Y-118387298D01*
X157226000Y-118387298D01*
X157226000Y-117260840D01*
X160059841Y-114427000D01*
X160157592Y-114427000D01*
X160427490Y-114373314D01*
X160681727Y-114268005D01*
X160910535Y-114115120D01*
X161105120Y-113920535D01*
X161258005Y-113691727D01*
X161363314Y-113437490D01*
X161417000Y-113167592D01*
X161417000Y-113069840D01*
X166268923Y-108217917D01*
X166273159Y-108239211D01*
X164333649Y-110178721D01*
X164304579Y-110202578D01*
X164280722Y-110231648D01*
X164280721Y-110231649D01*
X164209355Y-110318608D01*
X164138599Y-110450985D01*
X164095027Y-110594622D01*
X164080314Y-110744000D01*
X164084001Y-110781433D01*
X164084000Y-111890218D01*
X164080314Y-111927642D01*
X164084000Y-111965065D01*
X164084000Y-111965067D01*
X164095026Y-112077019D01*
X164138598Y-112220656D01*
X164138599Y-112220657D01*
X164209355Y-112353034D01*
X164245146Y-112396645D01*
X164304578Y-112469064D01*
X164333654Y-112492926D01*
X169193079Y-117352352D01*
X169216936Y-117381422D01*
X169332966Y-117476645D01*
X169465343Y-117547402D01*
X169608980Y-117590974D01*
X169720932Y-117602000D01*
X169720934Y-117602000D01*
X169758357Y-117605686D01*
X169795780Y-117602000D01*
X171503293Y-117602000D01*
X171605363Y-117754759D01*
X171805241Y-117954637D01*
X172040273Y-118111680D01*
X172095639Y-118134613D01*
X171612252Y-118618000D01*
X167808072Y-118618000D01*
X167808072Y-118580000D01*
X167795812Y-118455518D01*
X167759502Y-118335820D01*
X167700537Y-118225506D01*
X167621185Y-118128815D01*
X167524494Y-118049463D01*
X167414180Y-117990498D01*
X167294482Y-117954188D01*
X167170000Y-117941928D01*
X165570000Y-117941928D01*
X165445518Y-117954188D01*
X165325820Y-117990498D01*
X165215506Y-118049463D01*
X165118815Y-118128815D01*
X165039463Y-118225506D01*
X164980498Y-118335820D01*
X164944188Y-118455518D01*
X164931928Y-118580000D01*
X164931928Y-118587215D01*
X164862702Y-118566903D01*
X164049605Y-119380000D01*
X164862702Y-120193097D01*
X164931928Y-120172785D01*
X164931928Y-120180000D01*
X164944188Y-120304482D01*
X164980498Y-120424180D01*
X165039463Y-120534494D01*
X165118815Y-120631185D01*
X165215506Y-120710537D01*
X165325820Y-120769502D01*
X165445518Y-120805812D01*
X165570000Y-120818072D01*
X167170000Y-120818072D01*
X167294482Y-120805812D01*
X167414180Y-120769502D01*
X167524494Y-120710537D01*
X167621185Y-120631185D01*
X167700537Y-120534494D01*
X167759502Y-120424180D01*
X167795812Y-120304482D01*
X167808072Y-120180000D01*
X167808072Y-120142000D01*
X171890459Y-120142000D01*
X171927882Y-120145686D01*
X171965305Y-120142000D01*
X171965308Y-120142000D01*
X172077260Y-120130974D01*
X172220897Y-120087402D01*
X172353274Y-120016645D01*
X172469304Y-119921422D01*
X172493166Y-119892346D01*
X174552810Y-117832702D01*
X176986903Y-117832702D01*
X177058486Y-118076671D01*
X177313996Y-118197571D01*
X177588184Y-118266300D01*
X177870512Y-118280217D01*
X178150130Y-118238787D01*
X178416292Y-118143603D01*
X178541514Y-118076671D01*
X178613097Y-117832702D01*
X177800000Y-117019605D01*
X176986903Y-117832702D01*
X174552810Y-117832702D01*
X175475000Y-116910512D01*
X176359783Y-116910512D01*
X176401213Y-117190130D01*
X176496397Y-117456292D01*
X176563329Y-117581514D01*
X176807298Y-117653097D01*
X177620395Y-116840000D01*
X177979605Y-116840000D01*
X178792702Y-117653097D01*
X179036671Y-117581514D01*
X179157571Y-117326004D01*
X179226300Y-117051816D01*
X179240217Y-116769488D01*
X179198787Y-116489870D01*
X179103603Y-116223708D01*
X179036671Y-116098486D01*
X178792702Y-116026903D01*
X177979605Y-116840000D01*
X177620395Y-116840000D01*
X176807298Y-116026903D01*
X176563329Y-116098486D01*
X176442429Y-116353996D01*
X176373700Y-116628184D01*
X176359783Y-116910512D01*
X175475000Y-116910512D01*
X176538214Y-115847298D01*
X176986903Y-115847298D01*
X177800000Y-116660395D01*
X178613097Y-115847298D01*
X178541514Y-115603329D01*
X178286004Y-115482429D01*
X178011816Y-115413700D01*
X177729488Y-115399783D01*
X177449870Y-115441213D01*
X177183708Y-115536397D01*
X177058486Y-115603329D01*
X176986903Y-115847298D01*
X176538214Y-115847298D01*
X178312353Y-114073160D01*
X178341422Y-114049304D01*
X178406424Y-113970099D01*
X178436645Y-113933275D01*
X178474465Y-113862518D01*
X178507402Y-113800897D01*
X178550974Y-113657260D01*
X178562000Y-113545308D01*
X178562000Y-113545305D01*
X178565686Y-113507882D01*
X178562000Y-113470459D01*
X178562000Y-107896707D01*
X178714759Y-107794637D01*
X178914637Y-107594759D01*
X179071680Y-107359727D01*
X179179853Y-107098574D01*
X179235000Y-106821335D01*
X179235000Y-106538665D01*
X179179853Y-106261426D01*
X179071680Y-106000273D01*
X178914637Y-105765241D01*
X178714759Y-105565363D01*
X178479727Y-105408320D01*
X178218574Y-105300147D01*
X177941335Y-105245000D01*
X177658665Y-105245000D01*
X177381426Y-105300147D01*
X177120273Y-105408320D01*
X176885241Y-105565363D01*
X176685363Y-105765241D01*
X176583293Y-105918000D01*
X173936707Y-105918000D01*
X173834637Y-105765241D01*
X173634759Y-105565363D01*
X173482000Y-105463293D01*
X173482000Y-103161422D01*
X173485686Y-103123999D01*
X173482000Y-103086574D01*
X173470974Y-102974622D01*
X173427402Y-102830985D01*
X173356645Y-102698608D01*
X173261422Y-102582578D01*
X173232352Y-102558721D01*
X171761284Y-101087654D01*
X171737422Y-101058578D01*
X171621392Y-100963355D01*
X171489015Y-100892598D01*
X171345378Y-100849026D01*
X171233426Y-100838000D01*
X171233423Y-100838000D01*
X171196000Y-100834314D01*
X171158577Y-100838000D01*
X170126707Y-100838000D01*
X170024637Y-100685241D01*
X169824759Y-100485363D01*
X169589727Y-100328320D01*
X169328574Y-100220147D01*
X169051335Y-100165000D01*
X168768665Y-100165000D01*
X168491426Y-100220147D01*
X168230273Y-100328320D01*
X167995241Y-100485363D01*
X167795363Y-100685241D01*
X167638320Y-100920273D01*
X167530147Y-101181426D01*
X167475000Y-101458665D01*
X167475000Y-101741335D01*
X167530147Y-102018574D01*
X167638320Y-102279727D01*
X167795363Y-102514759D01*
X167995241Y-102714637D01*
X168230273Y-102871680D01*
X168491426Y-102979853D01*
X168768665Y-103035000D01*
X169051335Y-103035000D01*
X169328574Y-102979853D01*
X169589727Y-102871680D01*
X169824759Y-102714637D01*
X170024637Y-102514759D01*
X170126707Y-102362000D01*
X170880370Y-102362000D01*
X171958001Y-103439632D01*
X171958000Y-105463293D01*
X171805241Y-105565363D01*
X171605363Y-105765241D01*
X171448320Y-106000273D01*
X171340147Y-106261426D01*
X171285000Y-106538665D01*
X171285000Y-106821335D01*
X171340147Y-107098574D01*
X171448320Y-107359727D01*
X171605363Y-107594759D01*
X171805241Y-107794637D01*
X172040273Y-107951680D01*
X172301426Y-108059853D01*
X172578665Y-108115000D01*
X172861335Y-108115000D01*
X173138574Y-108059853D01*
X173399727Y-107951680D01*
X173634759Y-107794637D01*
X173834637Y-107594759D01*
X173936707Y-107442000D01*
X176583293Y-107442000D01*
X176685363Y-107594759D01*
X176885241Y-107794637D01*
X177038001Y-107896708D01*
X177038000Y-113192251D01*
X174014613Y-116215638D01*
X173991680Y-116160273D01*
X173834637Y-115925241D01*
X173634759Y-115725363D01*
X173399727Y-115568320D01*
X173138574Y-115460147D01*
X172861335Y-115405000D01*
X172578665Y-115405000D01*
X172301426Y-115460147D01*
X172040273Y-115568320D01*
X171805241Y-115725363D01*
X171605363Y-115925241D01*
X171503293Y-116078000D01*
X170073989Y-116078000D01*
X168275999Y-114280010D01*
X168358980Y-114235656D01*
X168425960Y-113995565D01*
X167640000Y-113209605D01*
X167625858Y-113223748D01*
X167446253Y-113044143D01*
X167460395Y-113030000D01*
X167819605Y-113030000D01*
X168605565Y-113815960D01*
X168845656Y-113748980D01*
X168962756Y-113499952D01*
X169029023Y-113232865D01*
X169041910Y-112957983D01*
X169000922Y-112685867D01*
X168907636Y-112426977D01*
X168845656Y-112311020D01*
X168605565Y-112244040D01*
X167819605Y-113030000D01*
X167460395Y-113030000D01*
X166674435Y-112244040D01*
X166434344Y-112311020D01*
X166393618Y-112397630D01*
X165608000Y-111612012D01*
X165608000Y-111059630D01*
X166243000Y-110424630D01*
X166243000Y-110627592D01*
X166296686Y-110897490D01*
X166401995Y-111151727D01*
X166554880Y-111380535D01*
X166749465Y-111575120D01*
X166978273Y-111728005D01*
X167049943Y-111757692D01*
X167036977Y-111762364D01*
X166921020Y-111824344D01*
X166854040Y-112064435D01*
X167640000Y-112850395D01*
X168425960Y-112064435D01*
X168358980Y-111824344D01*
X168223240Y-111760515D01*
X168301727Y-111728005D01*
X168530535Y-111575120D01*
X168725120Y-111380535D01*
X168878005Y-111151727D01*
X168983314Y-110897490D01*
X169037000Y-110627592D01*
X169037000Y-110352408D01*
X169006841Y-110200789D01*
X169295348Y-109912282D01*
X169324423Y-109888421D01*
X169411269Y-109782599D01*
X169419646Y-109772392D01*
X169490402Y-109640015D01*
X169490403Y-109640014D01*
X169533975Y-109496377D01*
X169545001Y-109384425D01*
X169545001Y-109384422D01*
X169548687Y-109346999D01*
X169545001Y-109309576D01*
X169545001Y-104898781D01*
X169548687Y-104861358D01*
X169537549Y-104748273D01*
X169533975Y-104711981D01*
X169490403Y-104568344D01*
X169419646Y-104435967D01*
X169324423Y-104319937D01*
X169295353Y-104296080D01*
X167864926Y-102865654D01*
X167841064Y-102836578D01*
X167725034Y-102741355D01*
X167592657Y-102670598D01*
X167449020Y-102627026D01*
X167337068Y-102616000D01*
X167337065Y-102616000D01*
X167299642Y-102612314D01*
X167262219Y-102616000D01*
X166153426Y-102616000D01*
X166116000Y-102612314D01*
X166078575Y-102616000D01*
X164653631Y-102616000D01*
X162871284Y-100833654D01*
X162847422Y-100804578D01*
X162731392Y-100709355D01*
X162599015Y-100638598D01*
X162455378Y-100595026D01*
X162343426Y-100584000D01*
X162343423Y-100584000D01*
X162306000Y-100580314D01*
X162268577Y-100584000D01*
X159319631Y-100584000D01*
X158496000Y-99760370D01*
X158496000Y-98067630D01*
X161321794Y-95241836D01*
X161405506Y-95310537D01*
X161515820Y-95369502D01*
X161635518Y-95405812D01*
X161760000Y-95418072D01*
X163360000Y-95418072D01*
X163484482Y-95405812D01*
X163604180Y-95369502D01*
X163714494Y-95310537D01*
X163811185Y-95231185D01*
X163821807Y-95218242D01*
X164073996Y-95337571D01*
X164348184Y-95406300D01*
X164630512Y-95420217D01*
X164910130Y-95378787D01*
X165176292Y-95283603D01*
X165301514Y-95216671D01*
X165373097Y-94972702D01*
X164560000Y-94159605D01*
X164545858Y-94173748D01*
X164366253Y-93994143D01*
X164380395Y-93980000D01*
X164366253Y-93965858D01*
X164545858Y-93786253D01*
X164560000Y-93800395D01*
X164574143Y-93786253D01*
X164753748Y-93965858D01*
X164739605Y-93980000D01*
X165552702Y-94793097D01*
X165767749Y-94730000D01*
X169041928Y-94730000D01*
X169054188Y-94854482D01*
X169090498Y-94974180D01*
X169149463Y-95084494D01*
X169228815Y-95181185D01*
X169325506Y-95260537D01*
X169435820Y-95319502D01*
X169555518Y-95355812D01*
X169680000Y-95368072D01*
X169894250Y-95365000D01*
X170053000Y-95206250D01*
X170053000Y-94107000D01*
X169203750Y-94107000D01*
X169045000Y-94265750D01*
X169041928Y-94730000D01*
X165767749Y-94730000D01*
X165796671Y-94721514D01*
X165917571Y-94466004D01*
X165986300Y-94191816D01*
X166000217Y-93909488D01*
X165958787Y-93629870D01*
X165902330Y-93472000D01*
X169043529Y-93472000D01*
X169045000Y-93694250D01*
X169203750Y-93853000D01*
X170053000Y-93853000D01*
X170053000Y-93833000D01*
X170307000Y-93833000D01*
X170307000Y-93853000D01*
X170315000Y-93853000D01*
X170315000Y-94107000D01*
X170307000Y-94107000D01*
X170307000Y-95206250D01*
X170465750Y-95365000D01*
X170680000Y-95368072D01*
X170730087Y-95363139D01*
X170742599Y-95404385D01*
X170813355Y-95536762D01*
X170869555Y-95605241D01*
X170908579Y-95652792D01*
X170937649Y-95676649D01*
X177373346Y-102112346D01*
X177397208Y-102141422D01*
X177470849Y-102201857D01*
X177513237Y-102236645D01*
X177583994Y-102274465D01*
X177645615Y-102307402D01*
X177789252Y-102350974D01*
X177849918Y-102356949D01*
X177955363Y-102514759D01*
X178155241Y-102714637D01*
X178390273Y-102871680D01*
X178651426Y-102979853D01*
X178928665Y-103035000D01*
X179211335Y-103035000D01*
X179488574Y-102979853D01*
X179749727Y-102871680D01*
X179984759Y-102714637D01*
X180184637Y-102514759D01*
X180200300Y-102491317D01*
X180200300Y-126352300D01*
X127647700Y-126352300D01*
X127647700Y-110305000D01*
X130356928Y-110305000D01*
X130369188Y-110429482D01*
X130405498Y-110549180D01*
X130464463Y-110659494D01*
X130543815Y-110756185D01*
X130640506Y-110835537D01*
X130750820Y-110894502D01*
X130870518Y-110930812D01*
X130995000Y-110943072D01*
X131794250Y-110940000D01*
X131953000Y-110781250D01*
X131953000Y-109347000D01*
X132207000Y-109347000D01*
X132207000Y-110781250D01*
X132365750Y-110940000D01*
X133165000Y-110943072D01*
X133289482Y-110930812D01*
X133409180Y-110894502D01*
X133519494Y-110835537D01*
X133616185Y-110756185D01*
X133695537Y-110659494D01*
X133754502Y-110549180D01*
X133790812Y-110429482D01*
X133803072Y-110305000D01*
X133800000Y-109505750D01*
X133641250Y-109347000D01*
X132207000Y-109347000D01*
X131953000Y-109347000D01*
X130518750Y-109347000D01*
X130360000Y-109505750D01*
X130356928Y-110305000D01*
X127647700Y-110305000D01*
X127647700Y-108135000D01*
X130356928Y-108135000D01*
X130360000Y-108934250D01*
X130518750Y-109093000D01*
X131953000Y-109093000D01*
X131953000Y-107658750D01*
X132207000Y-107658750D01*
X132207000Y-109093000D01*
X133641250Y-109093000D01*
X133800000Y-108934250D01*
X133803072Y-108135000D01*
X133790812Y-108010518D01*
X133754502Y-107890820D01*
X133695537Y-107780506D01*
X133616185Y-107683815D01*
X133519494Y-107604463D01*
X133409180Y-107545498D01*
X133289482Y-107509188D01*
X133165000Y-107496928D01*
X132365750Y-107500000D01*
X132207000Y-107658750D01*
X131953000Y-107658750D01*
X131794250Y-107500000D01*
X130995000Y-107496928D01*
X130870518Y-107509188D01*
X130750820Y-107545498D01*
X130640506Y-107604463D01*
X130543815Y-107683815D01*
X130464463Y-107780506D01*
X130405498Y-107890820D01*
X130369188Y-108010518D01*
X130356928Y-108135000D01*
X127647700Y-108135000D01*
X127647700Y-60909049D01*
X141582747Y-60909049D01*
X141583165Y-60968866D01*
X141582747Y-61028682D01*
X141583646Y-61037853D01*
X141609554Y-61284357D01*
X141621588Y-61342983D01*
X141632792Y-61401716D01*
X141635456Y-61410538D01*
X141708751Y-61647314D01*
X141731931Y-61702457D01*
X141754339Y-61757920D01*
X141758665Y-61766054D01*
X141758667Y-61766059D01*
X141758670Y-61766064D01*
X141876553Y-61984086D01*
X141909988Y-62033654D01*
X141942759Y-62083735D01*
X141948584Y-62090876D01*
X142106577Y-62281856D01*
X142149012Y-62323995D01*
X142190875Y-62366745D01*
X142197976Y-62372618D01*
X142390053Y-62529273D01*
X142439875Y-62562374D01*
X142489237Y-62596173D01*
X142497343Y-62600556D01*
X142716191Y-62716919D01*
X142771479Y-62739707D01*
X142826475Y-62763279D01*
X142835278Y-62766003D01*
X143072559Y-62837643D01*
X143131246Y-62849264D01*
X143189752Y-62861700D01*
X143198915Y-62862663D01*
X143198917Y-62862663D01*
X143445595Y-62886850D01*
X143445598Y-62886850D01*
X143477581Y-62890000D01*
X163862419Y-62890000D01*
X163895661Y-62886726D01*
X163912137Y-62886726D01*
X163921302Y-62885763D01*
X164167618Y-62858134D01*
X164226098Y-62845703D01*
X164284808Y-62834079D01*
X164293611Y-62831353D01*
X164529869Y-62756408D01*
X164584824Y-62732854D01*
X164640158Y-62710047D01*
X164648264Y-62705664D01*
X164865466Y-62586256D01*
X164914791Y-62552482D01*
X164964648Y-62519357D01*
X164971749Y-62513483D01*
X165161621Y-62354160D01*
X165203465Y-62311431D01*
X165245918Y-62269273D01*
X165251742Y-62262132D01*
X165407053Y-62068965D01*
X165439814Y-62018901D01*
X165473260Y-61969315D01*
X165477586Y-61961179D01*
X165592418Y-61741524D01*
X165614802Y-61686120D01*
X165638007Y-61630919D01*
X165640670Y-61622097D01*
X165710652Y-61384321D01*
X165721861Y-61325559D01*
X165733890Y-61266962D01*
X165734789Y-61257791D01*
X165757253Y-61010951D01*
X165756835Y-60951134D01*
X165757253Y-60891318D01*
X165756354Y-60882147D01*
X165730446Y-60635644D01*
X165718412Y-60577017D01*
X165707208Y-60518284D01*
X165704544Y-60509462D01*
X165631249Y-60272686D01*
X165608074Y-60217555D01*
X165585661Y-60162080D01*
X165581334Y-60153944D01*
X165463446Y-59935914D01*
X165430012Y-59886346D01*
X165397240Y-59836265D01*
X165391416Y-59829124D01*
X165233423Y-59638144D01*
X165190988Y-59596005D01*
X165149125Y-59553255D01*
X165142024Y-59547381D01*
X164949946Y-59390727D01*
X164900169Y-59357655D01*
X164850763Y-59323826D01*
X164842657Y-59319444D01*
X164623809Y-59203081D01*
X164568532Y-59180298D01*
X164513525Y-59156721D01*
X164504722Y-59153997D01*
X164267441Y-59082357D01*
X164208754Y-59070736D01*
X164150248Y-59058300D01*
X164141085Y-59057337D01*
X164141083Y-59057337D01*
X163894405Y-59033150D01*
X163894402Y-59033150D01*
X163862419Y-59030000D01*
X143477581Y-59030000D01*
X143444339Y-59033274D01*
X143427863Y-59033274D01*
X143418698Y-59034237D01*
X143172382Y-59061866D01*
X143113865Y-59074305D01*
X143055192Y-59085922D01*
X143046389Y-59088647D01*
X142810131Y-59163592D01*
X142755209Y-59187132D01*
X142699842Y-59209952D01*
X142691736Y-59214336D01*
X142474534Y-59333744D01*
X142425171Y-59367543D01*
X142375352Y-59400643D01*
X142368252Y-59406517D01*
X142178379Y-59565839D01*
X142136516Y-59608588D01*
X142094082Y-59650727D01*
X142088258Y-59657868D01*
X141932947Y-59851035D01*
X141900186Y-59901099D01*
X141866740Y-59950685D01*
X141862418Y-59958814D01*
X141862415Y-59958819D01*
X141862414Y-59958822D01*
X141747582Y-60178476D01*
X141725173Y-60233942D01*
X141701994Y-60289081D01*
X141699330Y-60297903D01*
X141629348Y-60535679D01*
X141618139Y-60594441D01*
X141606110Y-60653038D01*
X141605211Y-60662209D01*
X141582747Y-60909049D01*
X127647700Y-60909049D01*
X127647700Y-57797700D01*
X180200301Y-57797700D01*
X180200300Y-100708683D01*
G37*
X180200300Y-100708683D02*
X180184637Y-100685241D01*
X179984759Y-100485363D01*
X179749727Y-100328320D01*
X179488574Y-100220147D01*
X179211335Y-100165000D01*
X178928665Y-100165000D01*
X178651426Y-100220147D01*
X178390273Y-100328320D01*
X178155241Y-100485363D01*
X178028432Y-100612172D01*
X172780766Y-95364506D01*
X172942498Y-95348577D01*
X173156446Y-95283676D01*
X173353623Y-95178284D01*
X173526449Y-95036449D01*
X173668284Y-94863623D01*
X173773676Y-94666447D01*
X173838577Y-94452499D01*
X173855000Y-94285752D01*
X173855000Y-93674249D01*
X173838577Y-93507502D01*
X173773676Y-93293554D01*
X173668284Y-93096377D01*
X173526449Y-92923551D01*
X173476482Y-92882544D01*
X173470974Y-92826622D01*
X173427402Y-92682985D01*
X173356645Y-92550608D01*
X173261422Y-92434578D01*
X173232346Y-92410716D01*
X173019284Y-92197654D01*
X172995422Y-92168578D01*
X172879392Y-92073355D01*
X172747015Y-92002598D01*
X172603378Y-91959026D01*
X172491426Y-91948000D01*
X172491423Y-91948000D01*
X172454000Y-91944314D01*
X172416577Y-91948000D01*
X166177631Y-91948000D01*
X164592000Y-90362370D01*
X164592000Y-73928072D01*
X164730000Y-73928072D01*
X164854482Y-73915812D01*
X164974180Y-73879502D01*
X165084494Y-73820537D01*
X165181185Y-73741185D01*
X165260537Y-73644494D01*
X165319502Y-73534180D01*
X165355812Y-73414482D01*
X165368072Y-73290000D01*
X165368072Y-73048731D01*
X165409392Y-73026645D01*
X165525422Y-72931422D01*
X165549285Y-72902345D01*
X165623343Y-72828286D01*
X165652423Y-72804421D01*
X165747646Y-72688391D01*
X165818403Y-72556014D01*
X165861975Y-72412377D01*
X165873001Y-72300425D01*
X165873001Y-72300422D01*
X165876687Y-72262999D01*
X165873001Y-72225576D01*
X165873001Y-69272541D01*
X165876687Y-69235118D01*
X165873001Y-69197693D01*
X165861975Y-69085741D01*
X165818403Y-68942104D01*
X165747646Y-68809727D01*
X165652423Y-68693697D01*
X165623354Y-68669841D01*
X164767166Y-67813654D01*
X164743304Y-67784578D01*
X164627274Y-67689355D01*
X164494897Y-67618598D01*
X164351260Y-67575026D01*
X164239308Y-67564000D01*
X164239305Y-67564000D01*
X164201882Y-67560314D01*
X164164459Y-67564000D01*
X148765423Y-67564000D01*
X148728000Y-67560314D01*
X148690577Y-67564000D01*
X148690574Y-67564000D01*
X148578622Y-67575026D01*
X148434985Y-67618598D01*
X148373364Y-67651535D01*
X148302607Y-67689355D01*
X148219904Y-67757228D01*
X148186578Y-67784578D01*
X148162721Y-67813648D01*
X144895609Y-71080761D01*
X144861185Y-71038815D01*
X144764494Y-70959463D01*
X144654180Y-70900498D01*
X144635873Y-70894944D01*
X144702312Y-70828505D01*
X144870299Y-70577095D01*
X144986011Y-70297743D01*
X145045000Y-70001184D01*
X145045000Y-69698816D01*
X144986011Y-69402257D01*
X144870299Y-69122905D01*
X144702312Y-68871495D01*
X144488505Y-68657688D01*
X144237095Y-68489701D01*
X143957743Y-68373989D01*
X143661184Y-68315000D01*
X143358816Y-68315000D01*
X143062257Y-68373989D01*
X142782905Y-68489701D01*
X142531495Y-68657688D01*
X142317688Y-68871495D01*
X142149701Y-69122905D01*
X142033989Y-69402257D01*
X141975000Y-69698816D01*
X141975000Y-70001184D01*
X142025799Y-70256571D01*
X141716648Y-70565722D01*
X141687578Y-70589579D01*
X141663721Y-70618649D01*
X141663720Y-70618650D01*
X141592354Y-70705609D01*
X141521598Y-70837986D01*
X141478026Y-70981623D01*
X141463313Y-71131001D01*
X141467000Y-71168434D01*
X141466999Y-74119576D01*
X141463313Y-74156999D01*
X141466999Y-74194422D01*
X141466999Y-74194424D01*
X141478025Y-74306376D01*
X141521597Y-74450013D01*
X141521598Y-74450014D01*
X141592354Y-74582391D01*
X141631982Y-74630677D01*
X141687577Y-74698421D01*
X141716653Y-74722283D01*
X143256001Y-76261632D01*
X143256000Y-92025000D01*
X141727649Y-93553351D01*
X141698579Y-93577208D01*
X141674722Y-93606278D01*
X141674721Y-93606279D01*
X141603355Y-93693238D01*
X141532599Y-93825615D01*
X141489027Y-93969252D01*
X141483052Y-94029917D01*
X141325241Y-94135363D01*
X141125363Y-94335241D01*
X140968320Y-94570273D01*
X140860147Y-94831426D01*
X140805000Y-95108665D01*
X140805000Y-95391335D01*
X140860147Y-95668574D01*
X140968320Y-95929727D01*
X141125363Y-96164759D01*
X141325241Y-96364637D01*
X141560273Y-96521680D01*
X141821426Y-96629853D01*
X142098665Y-96685000D01*
X142381335Y-96685000D01*
X142658574Y-96629853D01*
X142919727Y-96521680D01*
X143154759Y-96364637D01*
X143354637Y-96164759D01*
X143511680Y-95929727D01*
X143619853Y-95668574D01*
X143675000Y-95391335D01*
X143675000Y-95108665D01*
X143619853Y-94831426D01*
X143511680Y-94570273D01*
X143354637Y-94335241D01*
X143227828Y-94208432D01*
X144530347Y-92905913D01*
X144559422Y-92882052D01*
X144619857Y-92808411D01*
X144654645Y-92766023D01*
X144699029Y-92682985D01*
X144725402Y-92633645D01*
X144768974Y-92490008D01*
X144780000Y-92378056D01*
X144780000Y-92378053D01*
X144783686Y-92340630D01*
X144780000Y-92303207D01*
X144780000Y-92122241D01*
X144935363Y-92354759D01*
X145135241Y-92554637D01*
X145370273Y-92711680D01*
X145631426Y-92819853D01*
X145908665Y-92875000D01*
X146191335Y-92875000D01*
X146468574Y-92819853D01*
X146729727Y-92711680D01*
X146964759Y-92554637D01*
X147164637Y-92354759D01*
X147321680Y-92119727D01*
X147429853Y-91858574D01*
X147485000Y-91581335D01*
X147485000Y-91298665D01*
X147429853Y-91021426D01*
X147321680Y-90760273D01*
X147164637Y-90525241D01*
X146964759Y-90325363D01*
X146729727Y-90168320D01*
X146468574Y-90060147D01*
X146191335Y-90005000D01*
X145908665Y-90005000D01*
X145796000Y-90027411D01*
X145796000Y-73467630D01*
X148651631Y-70612000D01*
X162493024Y-70612000D01*
X162637688Y-70828505D01*
X162704127Y-70894944D01*
X162685820Y-70900498D01*
X162575506Y-70959463D01*
X162478815Y-71038815D01*
X162399463Y-71135506D01*
X162340498Y-71245820D01*
X162304188Y-71365518D01*
X162291928Y-71490000D01*
X162291928Y-73290000D01*
X162304188Y-73414482D01*
X162340498Y-73534180D01*
X162399463Y-73644494D01*
X162478815Y-73741185D01*
X162575506Y-73820537D01*
X162685820Y-73879502D01*
X162805518Y-73915812D01*
X162930000Y-73928072D01*
X163068001Y-73928072D01*
X163068000Y-90640577D01*
X163064314Y-90678000D01*
X163068000Y-90715423D01*
X163068000Y-90715425D01*
X163079026Y-90827377D01*
X163122598Y-90971014D01*
X163122599Y-90971015D01*
X163193355Y-91103392D01*
X163229130Y-91146984D01*
X163288578Y-91219422D01*
X163317654Y-91243284D01*
X164620616Y-92546247D01*
X164489488Y-92539783D01*
X164209870Y-92581213D01*
X163943708Y-92676397D01*
X163821691Y-92741616D01*
X163811185Y-92728815D01*
X163714494Y-92649463D01*
X163604180Y-92590498D01*
X163484482Y-92554188D01*
X163360000Y-92541928D01*
X161760000Y-92541928D01*
X161635518Y-92554188D01*
X161515820Y-92590498D01*
X161405506Y-92649463D01*
X161308815Y-92728815D01*
X161229463Y-92825506D01*
X161170498Y-92935820D01*
X161134188Y-93055518D01*
X161121928Y-93180000D01*
X161121928Y-93321269D01*
X161080607Y-93343355D01*
X161050997Y-93367656D01*
X160964578Y-93438578D01*
X160940716Y-93467654D01*
X157619664Y-96788706D01*
X157645000Y-96661335D01*
X157645000Y-96378665D01*
X157589853Y-96101426D01*
X157481680Y-95840273D01*
X157324637Y-95605241D01*
X157124759Y-95405363D01*
X156889727Y-95248320D01*
X156628574Y-95140147D01*
X156351335Y-95085000D01*
X156068665Y-95085000D01*
X155791426Y-95140147D01*
X155530273Y-95248320D01*
X155295241Y-95405363D01*
X155095363Y-95605241D01*
X154938320Y-95840273D01*
X154830147Y-96101426D01*
X154775000Y-96378665D01*
X154775000Y-96661335D01*
X154830147Y-96938574D01*
X154938320Y-97199727D01*
X155095363Y-97434759D01*
X155295241Y-97634637D01*
X155530273Y-97791680D01*
X155791426Y-97899853D01*
X156068665Y-97955000D01*
X156351335Y-97955000D01*
X156531527Y-97919157D01*
X156876721Y-98264352D01*
X156900578Y-98293422D01*
X156972000Y-98352037D01*
X156972001Y-98991731D01*
X156972000Y-100038576D01*
X156968314Y-100076000D01*
X156972000Y-100113423D01*
X156972000Y-100113425D01*
X156983026Y-100225377D01*
X157026598Y-100369014D01*
X157026599Y-100369015D01*
X157097355Y-100501392D01*
X157136983Y-100549678D01*
X157192578Y-100617422D01*
X157221654Y-100641284D01*
X158438720Y-101858351D01*
X158462578Y-101887422D01*
X158578608Y-101982645D01*
X158710985Y-102053402D01*
X158854622Y-102096974D01*
X158966574Y-102108000D01*
X158966576Y-102108000D01*
X159003999Y-102111686D01*
X159041422Y-102108000D01*
X161990370Y-102108000D01*
X163772720Y-103890351D01*
X163796578Y-103919422D01*
X163825648Y-103943279D01*
X163912607Y-104014645D01*
X163965765Y-104043058D01*
X164044985Y-104085402D01*
X164188622Y-104128974D01*
X164300574Y-104140000D01*
X164300577Y-104140000D01*
X164338000Y-104143686D01*
X164375423Y-104140000D01*
X165354001Y-104140000D01*
X165354000Y-105348369D01*
X163514370Y-107188000D01*
X161191005Y-107188000D01*
X161105120Y-107059465D01*
X160910535Y-106864880D01*
X160681727Y-106711995D01*
X160604485Y-106680000D01*
X160681727Y-106648005D01*
X160910535Y-106495120D01*
X161105120Y-106300535D01*
X161258005Y-106071727D01*
X161363314Y-105817490D01*
X161417000Y-105547592D01*
X161417000Y-105272408D01*
X161363314Y-105002510D01*
X161258005Y-104748273D01*
X161105120Y-104519465D01*
X160910535Y-104324880D01*
X160681727Y-104171995D01*
X160427490Y-104066686D01*
X160157592Y-104013000D01*
X159882408Y-104013000D01*
X159612510Y-104066686D01*
X159358273Y-104171995D01*
X159129465Y-104324880D01*
X158934880Y-104519465D01*
X158781995Y-104748273D01*
X158676686Y-105002510D01*
X158623000Y-105272408D01*
X158623000Y-105547592D01*
X158676686Y-105817490D01*
X158781995Y-106071727D01*
X158934880Y-106300535D01*
X159129465Y-106495120D01*
X159358273Y-106648005D01*
X159435515Y-106680000D01*
X159358273Y-106711995D01*
X159129465Y-106864880D01*
X158934880Y-107059465D01*
X158781995Y-107288273D01*
X158676686Y-107542510D01*
X158623000Y-107812408D01*
X158623000Y-108087592D01*
X158676686Y-108357490D01*
X158781995Y-108611727D01*
X158934880Y-108840535D01*
X159129465Y-109035120D01*
X159358273Y-109188005D01*
X159435515Y-109220000D01*
X159358273Y-109251995D01*
X159129465Y-109404880D01*
X158934880Y-109599465D01*
X158781995Y-109828273D01*
X158676686Y-110082510D01*
X158623000Y-110352408D01*
X158623000Y-110627592D01*
X158653159Y-110779211D01*
X158434370Y-110998000D01*
X157426707Y-110998000D01*
X157324637Y-110845241D01*
X157124759Y-110645363D01*
X156972000Y-110543293D01*
X156972000Y-107896707D01*
X157124759Y-107794637D01*
X157324637Y-107594759D01*
X157481680Y-107359727D01*
X157589853Y-107098574D01*
X157645000Y-106821335D01*
X157645000Y-106538665D01*
X157589853Y-106261426D01*
X157481680Y-106000273D01*
X157324637Y-105765241D01*
X157124759Y-105565363D01*
X156889727Y-105408320D01*
X156628574Y-105300147D01*
X156351335Y-105245000D01*
X156068665Y-105245000D01*
X155791426Y-105300147D01*
X155530273Y-105408320D01*
X155295241Y-105565363D01*
X155095363Y-105765241D01*
X154938320Y-106000273D01*
X154830147Y-106261426D01*
X154775000Y-106538665D01*
X154775000Y-106821335D01*
X154830147Y-107098574D01*
X154938320Y-107359727D01*
X155095363Y-107594759D01*
X155295241Y-107794637D01*
X155448000Y-107896707D01*
X155448000Y-108361357D01*
X149860000Y-102773358D01*
X149860000Y-99226840D01*
X152401841Y-96685000D01*
X152541335Y-96685000D01*
X152818574Y-96629853D01*
X153079727Y-96521680D01*
X153314759Y-96364637D01*
X153514637Y-96164759D01*
X153671680Y-95929727D01*
X153779853Y-95668574D01*
X153835000Y-95391335D01*
X153835000Y-95251840D01*
X156211841Y-92875000D01*
X156351335Y-92875000D01*
X156628574Y-92819853D01*
X156889727Y-92711680D01*
X157124759Y-92554637D01*
X157324637Y-92354759D01*
X157481680Y-92119727D01*
X157589853Y-91858574D01*
X157645000Y-91581335D01*
X157645000Y-91298665D01*
X157589853Y-91021426D01*
X157481680Y-90760273D01*
X157324637Y-90525241D01*
X157124759Y-90325363D01*
X156889727Y-90168320D01*
X156628574Y-90060147D01*
X156351335Y-90005000D01*
X156068665Y-90005000D01*
X155791426Y-90060147D01*
X155530273Y-90168320D01*
X155295241Y-90325363D01*
X155095363Y-90525241D01*
X154938320Y-90760273D01*
X154830147Y-91021426D01*
X154775000Y-91298665D01*
X154775000Y-91438159D01*
X152398160Y-93815000D01*
X152258665Y-93815000D01*
X151981426Y-93870147D01*
X151720273Y-93978320D01*
X151485241Y-94135363D01*
X151285363Y-94335241D01*
X151128320Y-94570273D01*
X151020147Y-94831426D01*
X150965000Y-95108665D01*
X150965000Y-95248159D01*
X148160868Y-98052292D01*
X148122105Y-98084104D01*
X147995141Y-98238810D01*
X147965951Y-98293421D01*
X147900799Y-98415313D01*
X147842702Y-98606830D01*
X147823085Y-98806000D01*
X147828001Y-98855912D01*
X147828000Y-103144296D01*
X147823085Y-103194198D01*
X147828000Y-103244099D01*
X147842702Y-103393368D01*
X147900798Y-103584884D01*
X147995140Y-103761388D01*
X148122104Y-103916094D01*
X148160872Y-103947910D01*
X151605430Y-107392468D01*
X151530166Y-107407439D01*
X151187118Y-107549534D01*
X150878382Y-107755825D01*
X150615825Y-108018382D01*
X150409534Y-108327118D01*
X150267439Y-108670166D01*
X150195000Y-109034344D01*
X150195000Y-109405656D01*
X150238552Y-109624607D01*
X146596872Y-113266288D01*
X146558104Y-113298104D01*
X146431140Y-113452810D01*
X146336798Y-113629314D01*
X146284749Y-113800896D01*
X146278702Y-113820830D01*
X146259085Y-114020000D01*
X146264000Y-114069902D01*
X146264001Y-121891986D01*
X146260537Y-121885506D01*
X146181185Y-121788815D01*
X146084494Y-121709463D01*
X145974180Y-121650498D01*
X145854482Y-121614188D01*
X145730000Y-121601928D01*
X143830000Y-121601928D01*
X143705518Y-121614188D01*
X143585820Y-121650498D01*
X143475506Y-121709463D01*
X143378815Y-121788815D01*
X143299463Y-121885506D01*
X143240498Y-121995820D01*
X143204188Y-122115518D01*
X143191928Y-122240000D01*
X143191928Y-124140000D01*
X143204188Y-124264482D01*
X143240498Y-124384180D01*
X143299463Y-124494494D01*
X143378815Y-124591185D01*
X143475506Y-124670537D01*
X143585820Y-124729502D01*
X143705518Y-124765812D01*
X143830000Y-124778072D01*
X145730000Y-124778072D01*
X145854482Y-124765812D01*
X145974180Y-124729502D01*
X146084494Y-124670537D01*
X146181185Y-124591185D01*
X146260537Y-124494494D01*
X146291814Y-124435979D01*
X146529221Y-124594609D01*
X146817673Y-124714089D01*
X147123891Y-124775000D01*
X147436109Y-124775000D01*
X147742327Y-124714089D01*
X148030779Y-124594609D01*
X148290379Y-124421150D01*
X148511150Y-124200379D01*
X148530000Y-124172168D01*
X148548850Y-124200379D01*
X148769621Y-124421150D01*
X149029221Y-124594609D01*
X149317673Y-124714089D01*
X149623891Y-124775000D01*
X149936109Y-124775000D01*
X150242327Y-124714089D01*
X150530779Y-124594609D01*
X150790379Y-124421150D01*
X151005529Y-124206000D01*
X154890098Y-124206000D01*
X154940000Y-124210915D01*
X154989902Y-124206000D01*
X155139171Y-124191298D01*
X155330687Y-124133202D01*
X155507190Y-124038860D01*
X155661896Y-123911896D01*
X155693712Y-123873128D01*
X156211840Y-123355000D01*
X156351335Y-123355000D01*
X156628574Y-123299853D01*
X156889727Y-123191680D01*
X157124759Y-123034637D01*
X157324637Y-122834759D01*
X157481680Y-122599727D01*
X157589853Y-122338574D01*
X157645000Y-122061335D01*
X157645000Y-121778665D01*
X157589853Y-121501426D01*
X157481680Y-121240273D01*
X157324637Y-121005241D01*
X157226000Y-120906604D01*
X157226000Y-120372702D01*
X163056903Y-120372702D01*
X163128486Y-120616671D01*
X163383996Y-120737571D01*
X163658184Y-120806300D01*
X163940512Y-120820217D01*
X164220130Y-120778787D01*
X164486292Y-120683603D01*
X164611514Y-120616671D01*
X164683097Y-120372702D01*
X163870000Y-119559605D01*
X163056903Y-120372702D01*
X157226000Y-120372702D01*
X157226000Y-119450512D01*
X162429783Y-119450512D01*
X162471213Y-119730130D01*
X162566397Y-119996292D01*
X162633329Y-120121514D01*
X162877298Y-120193097D01*
X163690395Y-119380000D01*
X162877298Y-118566903D01*
X162633329Y-118638486D01*
X162512429Y-118893996D01*
X162443700Y-119168184D01*
X162429783Y-119450512D01*
X157226000Y-119450512D01*
X157226000Y-118387298D01*
X163056903Y-118387298D01*
X163870000Y-119200395D01*
X164683097Y-118387298D01*
X164611514Y-118143329D01*
X164356004Y-118022429D01*
X164081816Y-117953700D01*
X163799488Y-117939783D01*
X163519870Y-117981213D01*
X163253708Y-118076397D01*
X163128486Y-118143329D01*
X163056903Y-118387298D01*
X157226000Y-118387298D01*
X157226000Y-117260840D01*
X160059841Y-114427000D01*
X160157592Y-114427000D01*
X160427490Y-114373314D01*
X160681727Y-114268005D01*
X160910535Y-114115120D01*
X161105120Y-113920535D01*
X161258005Y-113691727D01*
X161363314Y-113437490D01*
X161417000Y-113167592D01*
X161417000Y-113069840D01*
X166268923Y-108217917D01*
X166273159Y-108239211D01*
X164333649Y-110178721D01*
X164304579Y-110202578D01*
X164280722Y-110231648D01*
X164280721Y-110231649D01*
X164209355Y-110318608D01*
X164138599Y-110450985D01*
X164095027Y-110594622D01*
X164080314Y-110744000D01*
X164084001Y-110781433D01*
X164084000Y-111890218D01*
X164080314Y-111927642D01*
X164084000Y-111965065D01*
X164084000Y-111965067D01*
X164095026Y-112077019D01*
X164138598Y-112220656D01*
X164138599Y-112220657D01*
X164209355Y-112353034D01*
X164245146Y-112396645D01*
X164304578Y-112469064D01*
X164333654Y-112492926D01*
X169193079Y-117352352D01*
X169216936Y-117381422D01*
X169332966Y-117476645D01*
X169465343Y-117547402D01*
X169608980Y-117590974D01*
X169720932Y-117602000D01*
X169720934Y-117602000D01*
X169758357Y-117605686D01*
X169795780Y-117602000D01*
X171503293Y-117602000D01*
X171605363Y-117754759D01*
X171805241Y-117954637D01*
X172040273Y-118111680D01*
X172095639Y-118134613D01*
X171612252Y-118618000D01*
X167808072Y-118618000D01*
X167808072Y-118580000D01*
X167795812Y-118455518D01*
X167759502Y-118335820D01*
X167700537Y-118225506D01*
X167621185Y-118128815D01*
X167524494Y-118049463D01*
X167414180Y-117990498D01*
X167294482Y-117954188D01*
X167170000Y-117941928D01*
X165570000Y-117941928D01*
X165445518Y-117954188D01*
X165325820Y-117990498D01*
X165215506Y-118049463D01*
X165118815Y-118128815D01*
X165039463Y-118225506D01*
X164980498Y-118335820D01*
X164944188Y-118455518D01*
X164931928Y-118580000D01*
X164931928Y-118587215D01*
X164862702Y-118566903D01*
X164049605Y-119380000D01*
X164862702Y-120193097D01*
X164931928Y-120172785D01*
X164931928Y-120180000D01*
X164944188Y-120304482D01*
X164980498Y-120424180D01*
X165039463Y-120534494D01*
X165118815Y-120631185D01*
X165215506Y-120710537D01*
X165325820Y-120769502D01*
X165445518Y-120805812D01*
X165570000Y-120818072D01*
X167170000Y-120818072D01*
X167294482Y-120805812D01*
X167414180Y-120769502D01*
X167524494Y-120710537D01*
X167621185Y-120631185D01*
X167700537Y-120534494D01*
X167759502Y-120424180D01*
X167795812Y-120304482D01*
X167808072Y-120180000D01*
X167808072Y-120142000D01*
X171890459Y-120142000D01*
X171927882Y-120145686D01*
X171965305Y-120142000D01*
X171965308Y-120142000D01*
X172077260Y-120130974D01*
X172220897Y-120087402D01*
X172353274Y-120016645D01*
X172469304Y-119921422D01*
X172493166Y-119892346D01*
X174552810Y-117832702D01*
X176986903Y-117832702D01*
X177058486Y-118076671D01*
X177313996Y-118197571D01*
X177588184Y-118266300D01*
X177870512Y-118280217D01*
X178150130Y-118238787D01*
X178416292Y-118143603D01*
X178541514Y-118076671D01*
X178613097Y-117832702D01*
X177800000Y-117019605D01*
X176986903Y-117832702D01*
X174552810Y-117832702D01*
X175475000Y-116910512D01*
X176359783Y-116910512D01*
X176401213Y-117190130D01*
X176496397Y-117456292D01*
X176563329Y-117581514D01*
X176807298Y-117653097D01*
X177620395Y-116840000D01*
X177979605Y-116840000D01*
X178792702Y-117653097D01*
X179036671Y-117581514D01*
X179157571Y-117326004D01*
X179226300Y-117051816D01*
X179240217Y-116769488D01*
X179198787Y-116489870D01*
X179103603Y-116223708D01*
X179036671Y-116098486D01*
X178792702Y-116026903D01*
X177979605Y-116840000D01*
X177620395Y-116840000D01*
X176807298Y-116026903D01*
X176563329Y-116098486D01*
X176442429Y-116353996D01*
X176373700Y-116628184D01*
X176359783Y-116910512D01*
X175475000Y-116910512D01*
X176538214Y-115847298D01*
X176986903Y-115847298D01*
X177800000Y-116660395D01*
X178613097Y-115847298D01*
X178541514Y-115603329D01*
X178286004Y-115482429D01*
X178011816Y-115413700D01*
X177729488Y-115399783D01*
X177449870Y-115441213D01*
X177183708Y-115536397D01*
X177058486Y-115603329D01*
X176986903Y-115847298D01*
X176538214Y-115847298D01*
X178312353Y-114073160D01*
X178341422Y-114049304D01*
X178406424Y-113970099D01*
X178436645Y-113933275D01*
X178474465Y-113862518D01*
X178507402Y-113800897D01*
X178550974Y-113657260D01*
X178562000Y-113545308D01*
X178562000Y-113545305D01*
X178565686Y-113507882D01*
X178562000Y-113470459D01*
X178562000Y-107896707D01*
X178714759Y-107794637D01*
X178914637Y-107594759D01*
X179071680Y-107359727D01*
X179179853Y-107098574D01*
X179235000Y-106821335D01*
X179235000Y-106538665D01*
X179179853Y-106261426D01*
X179071680Y-106000273D01*
X178914637Y-105765241D01*
X178714759Y-105565363D01*
X178479727Y-105408320D01*
X178218574Y-105300147D01*
X177941335Y-105245000D01*
X177658665Y-105245000D01*
X177381426Y-105300147D01*
X177120273Y-105408320D01*
X176885241Y-105565363D01*
X176685363Y-105765241D01*
X176583293Y-105918000D01*
X173936707Y-105918000D01*
X173834637Y-105765241D01*
X173634759Y-105565363D01*
X173482000Y-105463293D01*
X173482000Y-103161422D01*
X173485686Y-103123999D01*
X173482000Y-103086574D01*
X173470974Y-102974622D01*
X173427402Y-102830985D01*
X173356645Y-102698608D01*
X173261422Y-102582578D01*
X173232352Y-102558721D01*
X171761284Y-101087654D01*
X171737422Y-101058578D01*
X171621392Y-100963355D01*
X171489015Y-100892598D01*
X171345378Y-100849026D01*
X171233426Y-100838000D01*
X171233423Y-100838000D01*
X171196000Y-100834314D01*
X171158577Y-100838000D01*
X170126707Y-100838000D01*
X170024637Y-100685241D01*
X169824759Y-100485363D01*
X169589727Y-100328320D01*
X169328574Y-100220147D01*
X169051335Y-100165000D01*
X168768665Y-100165000D01*
X168491426Y-100220147D01*
X168230273Y-100328320D01*
X167995241Y-100485363D01*
X167795363Y-100685241D01*
X167638320Y-100920273D01*
X167530147Y-101181426D01*
X167475000Y-101458665D01*
X167475000Y-101741335D01*
X167530147Y-102018574D01*
X167638320Y-102279727D01*
X167795363Y-102514759D01*
X167995241Y-102714637D01*
X168230273Y-102871680D01*
X168491426Y-102979853D01*
X168768665Y-103035000D01*
X169051335Y-103035000D01*
X169328574Y-102979853D01*
X169589727Y-102871680D01*
X169824759Y-102714637D01*
X170024637Y-102514759D01*
X170126707Y-102362000D01*
X170880370Y-102362000D01*
X171958001Y-103439632D01*
X171958000Y-105463293D01*
X171805241Y-105565363D01*
X171605363Y-105765241D01*
X171448320Y-106000273D01*
X171340147Y-106261426D01*
X171285000Y-106538665D01*
X171285000Y-106821335D01*
X171340147Y-107098574D01*
X171448320Y-107359727D01*
X171605363Y-107594759D01*
X171805241Y-107794637D01*
X172040273Y-107951680D01*
X172301426Y-108059853D01*
X172578665Y-108115000D01*
X172861335Y-108115000D01*
X173138574Y-108059853D01*
X173399727Y-107951680D01*
X173634759Y-107794637D01*
X173834637Y-107594759D01*
X173936707Y-107442000D01*
X176583293Y-107442000D01*
X176685363Y-107594759D01*
X176885241Y-107794637D01*
X177038001Y-107896708D01*
X177038000Y-113192251D01*
X174014613Y-116215638D01*
X173991680Y-116160273D01*
X173834637Y-115925241D01*
X173634759Y-115725363D01*
X173399727Y-115568320D01*
X173138574Y-115460147D01*
X172861335Y-115405000D01*
X172578665Y-115405000D01*
X172301426Y-115460147D01*
X172040273Y-115568320D01*
X171805241Y-115725363D01*
X171605363Y-115925241D01*
X171503293Y-116078000D01*
X170073989Y-116078000D01*
X168275999Y-114280010D01*
X168358980Y-114235656D01*
X168425960Y-113995565D01*
X167640000Y-113209605D01*
X167625858Y-113223748D01*
X167446253Y-113044143D01*
X167460395Y-113030000D01*
X167819605Y-113030000D01*
X168605565Y-113815960D01*
X168845656Y-113748980D01*
X168962756Y-113499952D01*
X169029023Y-113232865D01*
X169041910Y-112957983D01*
X169000922Y-112685867D01*
X168907636Y-112426977D01*
X168845656Y-112311020D01*
X168605565Y-112244040D01*
X167819605Y-113030000D01*
X167460395Y-113030000D01*
X166674435Y-112244040D01*
X166434344Y-112311020D01*
X166393618Y-112397630D01*
X165608000Y-111612012D01*
X165608000Y-111059630D01*
X166243000Y-110424630D01*
X166243000Y-110627592D01*
X166296686Y-110897490D01*
X166401995Y-111151727D01*
X166554880Y-111380535D01*
X166749465Y-111575120D01*
X166978273Y-111728005D01*
X167049943Y-111757692D01*
X167036977Y-111762364D01*
X166921020Y-111824344D01*
X166854040Y-112064435D01*
X167640000Y-112850395D01*
X168425960Y-112064435D01*
X168358980Y-111824344D01*
X168223240Y-111760515D01*
X168301727Y-111728005D01*
X168530535Y-111575120D01*
X168725120Y-111380535D01*
X168878005Y-111151727D01*
X168983314Y-110897490D01*
X169037000Y-110627592D01*
X169037000Y-110352408D01*
X169006841Y-110200789D01*
X169295348Y-109912282D01*
X169324423Y-109888421D01*
X169411269Y-109782599D01*
X169419646Y-109772392D01*
X169490402Y-109640015D01*
X169490403Y-109640014D01*
X169533975Y-109496377D01*
X169545001Y-109384425D01*
X169545001Y-109384422D01*
X169548687Y-109346999D01*
X169545001Y-109309576D01*
X169545001Y-104898781D01*
X169548687Y-104861358D01*
X169537549Y-104748273D01*
X169533975Y-104711981D01*
X169490403Y-104568344D01*
X169419646Y-104435967D01*
X169324423Y-104319937D01*
X169295353Y-104296080D01*
X167864926Y-102865654D01*
X167841064Y-102836578D01*
X167725034Y-102741355D01*
X167592657Y-102670598D01*
X167449020Y-102627026D01*
X167337068Y-102616000D01*
X167337065Y-102616000D01*
X167299642Y-102612314D01*
X167262219Y-102616000D01*
X166153426Y-102616000D01*
X166116000Y-102612314D01*
X166078575Y-102616000D01*
X164653631Y-102616000D01*
X162871284Y-100833654D01*
X162847422Y-100804578D01*
X162731392Y-100709355D01*
X162599015Y-100638598D01*
X162455378Y-100595026D01*
X162343426Y-100584000D01*
X162343423Y-100584000D01*
X162306000Y-100580314D01*
X162268577Y-100584000D01*
X159319631Y-100584000D01*
X158496000Y-99760370D01*
X158496000Y-98067630D01*
X161321794Y-95241836D01*
X161405506Y-95310537D01*
X161515820Y-95369502D01*
X161635518Y-95405812D01*
X161760000Y-95418072D01*
X163360000Y-95418072D01*
X163484482Y-95405812D01*
X163604180Y-95369502D01*
X163714494Y-95310537D01*
X163811185Y-95231185D01*
X163821807Y-95218242D01*
X164073996Y-95337571D01*
X164348184Y-95406300D01*
X164630512Y-95420217D01*
X164910130Y-95378787D01*
X165176292Y-95283603D01*
X165301514Y-95216671D01*
X165373097Y-94972702D01*
X164560000Y-94159605D01*
X164545858Y-94173748D01*
X164366253Y-93994143D01*
X164380395Y-93980000D01*
X164366253Y-93965858D01*
X164545858Y-93786253D01*
X164560000Y-93800395D01*
X164574143Y-93786253D01*
X164753748Y-93965858D01*
X164739605Y-93980000D01*
X165552702Y-94793097D01*
X165767749Y-94730000D01*
X169041928Y-94730000D01*
X169054188Y-94854482D01*
X169090498Y-94974180D01*
X169149463Y-95084494D01*
X169228815Y-95181185D01*
X169325506Y-95260537D01*
X169435820Y-95319502D01*
X169555518Y-95355812D01*
X169680000Y-95368072D01*
X169894250Y-95365000D01*
X170053000Y-95206250D01*
X170053000Y-94107000D01*
X169203750Y-94107000D01*
X169045000Y-94265750D01*
X169041928Y-94730000D01*
X165767749Y-94730000D01*
X165796671Y-94721514D01*
X165917571Y-94466004D01*
X165986300Y-94191816D01*
X166000217Y-93909488D01*
X165958787Y-93629870D01*
X165902330Y-93472000D01*
X169043529Y-93472000D01*
X169045000Y-93694250D01*
X169203750Y-93853000D01*
X170053000Y-93853000D01*
X170053000Y-93833000D01*
X170307000Y-93833000D01*
X170307000Y-93853000D01*
X170315000Y-93853000D01*
X170315000Y-94107000D01*
X170307000Y-94107000D01*
X170307000Y-95206250D01*
X170465750Y-95365000D01*
X170680000Y-95368072D01*
X170730087Y-95363139D01*
X170742599Y-95404385D01*
X170813355Y-95536762D01*
X170869555Y-95605241D01*
X170908579Y-95652792D01*
X170937649Y-95676649D01*
X177373346Y-102112346D01*
X177397208Y-102141422D01*
X177470849Y-102201857D01*
X177513237Y-102236645D01*
X177583994Y-102274465D01*
X177645615Y-102307402D01*
X177789252Y-102350974D01*
X177849918Y-102356949D01*
X177955363Y-102514759D01*
X178155241Y-102714637D01*
X178390273Y-102871680D01*
X178651426Y-102979853D01*
X178928665Y-103035000D01*
X179211335Y-103035000D01*
X179488574Y-102979853D01*
X179749727Y-102871680D01*
X179984759Y-102714637D01*
X180184637Y-102514759D01*
X180200300Y-102491317D01*
X180200300Y-126352300D01*
X127647700Y-126352300D01*
X127647700Y-110305000D01*
X130356928Y-110305000D01*
X130369188Y-110429482D01*
X130405498Y-110549180D01*
X130464463Y-110659494D01*
X130543815Y-110756185D01*
X130640506Y-110835537D01*
X130750820Y-110894502D01*
X130870518Y-110930812D01*
X130995000Y-110943072D01*
X131794250Y-110940000D01*
X131953000Y-110781250D01*
X131953000Y-109347000D01*
X132207000Y-109347000D01*
X132207000Y-110781250D01*
X132365750Y-110940000D01*
X133165000Y-110943072D01*
X133289482Y-110930812D01*
X133409180Y-110894502D01*
X133519494Y-110835537D01*
X133616185Y-110756185D01*
X133695537Y-110659494D01*
X133754502Y-110549180D01*
X133790812Y-110429482D01*
X133803072Y-110305000D01*
X133800000Y-109505750D01*
X133641250Y-109347000D01*
X132207000Y-109347000D01*
X131953000Y-109347000D01*
X130518750Y-109347000D01*
X130360000Y-109505750D01*
X130356928Y-110305000D01*
X127647700Y-110305000D01*
X127647700Y-108135000D01*
X130356928Y-108135000D01*
X130360000Y-108934250D01*
X130518750Y-109093000D01*
X131953000Y-109093000D01*
X131953000Y-107658750D01*
X132207000Y-107658750D01*
X132207000Y-109093000D01*
X133641250Y-109093000D01*
X133800000Y-108934250D01*
X133803072Y-108135000D01*
X133790812Y-108010518D01*
X133754502Y-107890820D01*
X133695537Y-107780506D01*
X133616185Y-107683815D01*
X133519494Y-107604463D01*
X133409180Y-107545498D01*
X133289482Y-107509188D01*
X133165000Y-107496928D01*
X132365750Y-107500000D01*
X132207000Y-107658750D01*
X131953000Y-107658750D01*
X131794250Y-107500000D01*
X130995000Y-107496928D01*
X130870518Y-107509188D01*
X130750820Y-107545498D01*
X130640506Y-107604463D01*
X130543815Y-107683815D01*
X130464463Y-107780506D01*
X130405498Y-107890820D01*
X130369188Y-108010518D01*
X130356928Y-108135000D01*
X127647700Y-108135000D01*
X127647700Y-60909049D01*
X141582747Y-60909049D01*
X141583165Y-60968866D01*
X141582747Y-61028682D01*
X141583646Y-61037853D01*
X141609554Y-61284357D01*
X141621588Y-61342983D01*
X141632792Y-61401716D01*
X141635456Y-61410538D01*
X141708751Y-61647314D01*
X141731931Y-61702457D01*
X141754339Y-61757920D01*
X141758665Y-61766054D01*
X141758667Y-61766059D01*
X141758670Y-61766064D01*
X141876553Y-61984086D01*
X141909988Y-62033654D01*
X141942759Y-62083735D01*
X141948584Y-62090876D01*
X142106577Y-62281856D01*
X142149012Y-62323995D01*
X142190875Y-62366745D01*
X142197976Y-62372618D01*
X142390053Y-62529273D01*
X142439875Y-62562374D01*
X142489237Y-62596173D01*
X142497343Y-62600556D01*
X142716191Y-62716919D01*
X142771479Y-62739707D01*
X142826475Y-62763279D01*
X142835278Y-62766003D01*
X143072559Y-62837643D01*
X143131246Y-62849264D01*
X143189752Y-62861700D01*
X143198915Y-62862663D01*
X143198917Y-62862663D01*
X143445595Y-62886850D01*
X143445598Y-62886850D01*
X143477581Y-62890000D01*
X163862419Y-62890000D01*
X163895661Y-62886726D01*
X163912137Y-62886726D01*
X163921302Y-62885763D01*
X164167618Y-62858134D01*
X164226098Y-62845703D01*
X164284808Y-62834079D01*
X164293611Y-62831353D01*
X164529869Y-62756408D01*
X164584824Y-62732854D01*
X164640158Y-62710047D01*
X164648264Y-62705664D01*
X164865466Y-62586256D01*
X164914791Y-62552482D01*
X164964648Y-62519357D01*
X164971749Y-62513483D01*
X165161621Y-62354160D01*
X165203465Y-62311431D01*
X165245918Y-62269273D01*
X165251742Y-62262132D01*
X165407053Y-62068965D01*
X165439814Y-62018901D01*
X165473260Y-61969315D01*
X165477586Y-61961179D01*
X165592418Y-61741524D01*
X165614802Y-61686120D01*
X165638007Y-61630919D01*
X165640670Y-61622097D01*
X165710652Y-61384321D01*
X165721861Y-61325559D01*
X165733890Y-61266962D01*
X165734789Y-61257791D01*
X165757253Y-61010951D01*
X165756835Y-60951134D01*
X165757253Y-60891318D01*
X165756354Y-60882147D01*
X165730446Y-60635644D01*
X165718412Y-60577017D01*
X165707208Y-60518284D01*
X165704544Y-60509462D01*
X165631249Y-60272686D01*
X165608074Y-60217555D01*
X165585661Y-60162080D01*
X165581334Y-60153944D01*
X165463446Y-59935914D01*
X165430012Y-59886346D01*
X165397240Y-59836265D01*
X165391416Y-59829124D01*
X165233423Y-59638144D01*
X165190988Y-59596005D01*
X165149125Y-59553255D01*
X165142024Y-59547381D01*
X164949946Y-59390727D01*
X164900169Y-59357655D01*
X164850763Y-59323826D01*
X164842657Y-59319444D01*
X164623809Y-59203081D01*
X164568532Y-59180298D01*
X164513525Y-59156721D01*
X164504722Y-59153997D01*
X164267441Y-59082357D01*
X164208754Y-59070736D01*
X164150248Y-59058300D01*
X164141085Y-59057337D01*
X164141083Y-59057337D01*
X163894405Y-59033150D01*
X163894402Y-59033150D01*
X163862419Y-59030000D01*
X143477581Y-59030000D01*
X143444339Y-59033274D01*
X143427863Y-59033274D01*
X143418698Y-59034237D01*
X143172382Y-59061866D01*
X143113865Y-59074305D01*
X143055192Y-59085922D01*
X143046389Y-59088647D01*
X142810131Y-59163592D01*
X142755209Y-59187132D01*
X142699842Y-59209952D01*
X142691736Y-59214336D01*
X142474534Y-59333744D01*
X142425171Y-59367543D01*
X142375352Y-59400643D01*
X142368252Y-59406517D01*
X142178379Y-59565839D01*
X142136516Y-59608588D01*
X142094082Y-59650727D01*
X142088258Y-59657868D01*
X141932947Y-59851035D01*
X141900186Y-59901099D01*
X141866740Y-59950685D01*
X141862418Y-59958814D01*
X141862415Y-59958819D01*
X141862414Y-59958822D01*
X141747582Y-60178476D01*
X141725173Y-60233942D01*
X141701994Y-60289081D01*
X141699330Y-60297903D01*
X141629348Y-60535679D01*
X141618139Y-60594441D01*
X141606110Y-60653038D01*
X141605211Y-60662209D01*
X141582747Y-60909049D01*
X127647700Y-60909049D01*
X127647700Y-57797700D01*
X180200301Y-57797700D01*
X180200300Y-100708683D01*
M02*
