G04 #@! TF.GenerationSoftware,KiCad,Pcbnew,(5.1.5-0-10_14)*
G04 #@! TF.CreationDate,2019-12-18T22:01:42+01:00*
G04 #@! TF.ProjectId,ghost,67686f73-742e-46b6-9963-61645f706362,v1.0.0*
G04 #@! TF.SameCoordinates,Original*
G04 #@! TF.FileFunction,Soldermask,Top*
G04 #@! TF.FilePolarity,Negative*
%FSLAX46Y46*%
G04 Gerber Fmt 4.6, Leading zero omitted, Abs format (unit mm)*
G04 Created by KiCad (PCBNEW (5.1.5-0-10_14)) date 2019-12-18 22:01:42*
%MOMM*%
%LPD*%
G04 APERTURE LIST*
%ADD10C,0.100000*%
G04 APERTURE END LIST*
D10*
G36*
X149975285Y-122208234D02*
G01*
X150071981Y-122227468D01*
X150254151Y-122302926D01*
X150418100Y-122412473D01*
X150557527Y-122551900D01*
X150667074Y-122715849D01*
X150742532Y-122898019D01*
X150781000Y-123091410D01*
X150781000Y-123288590D01*
X150742532Y-123481981D01*
X150667074Y-123664151D01*
X150557527Y-123828100D01*
X150418100Y-123967527D01*
X150254151Y-124077074D01*
X150071981Y-124152532D01*
X149975285Y-124171766D01*
X149878591Y-124191000D01*
X149681409Y-124191000D01*
X149584715Y-124171766D01*
X149488019Y-124152532D01*
X149305849Y-124077074D01*
X149141900Y-123967527D01*
X149002473Y-123828100D01*
X148892926Y-123664151D01*
X148817468Y-123481981D01*
X148779000Y-123288590D01*
X148779000Y-123091410D01*
X148817468Y-122898019D01*
X148892926Y-122715849D01*
X149002473Y-122551900D01*
X149141900Y-122412473D01*
X149305849Y-122302926D01*
X149488019Y-122227468D01*
X149584715Y-122208234D01*
X149681409Y-122189000D01*
X149878591Y-122189000D01*
X149975285Y-122208234D01*
G37*
G36*
X147475285Y-122208234D02*
G01*
X147571981Y-122227468D01*
X147754151Y-122302926D01*
X147918100Y-122412473D01*
X148057527Y-122551900D01*
X148167074Y-122715849D01*
X148242532Y-122898019D01*
X148281000Y-123091410D01*
X148281000Y-123288590D01*
X148242532Y-123481981D01*
X148167074Y-123664151D01*
X148057527Y-123828100D01*
X147918100Y-123967527D01*
X147754151Y-124077074D01*
X147571981Y-124152532D01*
X147475285Y-124171766D01*
X147378591Y-124191000D01*
X147181409Y-124191000D01*
X147084715Y-124171766D01*
X146988019Y-124152532D01*
X146805849Y-124077074D01*
X146641900Y-123967527D01*
X146502473Y-123828100D01*
X146392926Y-123664151D01*
X146317468Y-123481981D01*
X146279000Y-123288590D01*
X146279000Y-123091410D01*
X146317468Y-122898019D01*
X146392926Y-122715849D01*
X146502473Y-122551900D01*
X146641900Y-122412473D01*
X146805849Y-122302926D01*
X146988019Y-122227468D01*
X147084715Y-122208234D01*
X147181409Y-122189000D01*
X147378591Y-122189000D01*
X147475285Y-122208234D01*
G37*
G36*
X145781000Y-124191000D02*
G01*
X143779000Y-124191000D01*
X143779000Y-122189000D01*
X145781000Y-122189000D01*
X145781000Y-124191000D01*
G37*
G36*
X156458228Y-121101703D02*
G01*
X156613100Y-121165853D01*
X156752481Y-121258985D01*
X156871015Y-121377519D01*
X156964147Y-121516900D01*
X157028297Y-121671772D01*
X157061000Y-121836184D01*
X157061000Y-122003816D01*
X157028297Y-122168228D01*
X156964147Y-122323100D01*
X156871015Y-122462481D01*
X156752481Y-122581015D01*
X156613100Y-122674147D01*
X156458228Y-122738297D01*
X156293816Y-122771000D01*
X156126184Y-122771000D01*
X155961772Y-122738297D01*
X155806900Y-122674147D01*
X155667519Y-122581015D01*
X155548985Y-122462481D01*
X155455853Y-122323100D01*
X155391703Y-122168228D01*
X155359000Y-122003816D01*
X155359000Y-121836184D01*
X155391703Y-121671772D01*
X155455853Y-121516900D01*
X155548985Y-121377519D01*
X155667519Y-121258985D01*
X155806900Y-121165853D01*
X155961772Y-121101703D01*
X156126184Y-121069000D01*
X156293816Y-121069000D01*
X156458228Y-121101703D01*
G37*
G36*
X167221000Y-120231000D02*
G01*
X165519000Y-120231000D01*
X165519000Y-118529000D01*
X167221000Y-118529000D01*
X167221000Y-120231000D01*
G37*
G36*
X164118228Y-118561703D02*
G01*
X164273100Y-118625853D01*
X164412481Y-118718985D01*
X164531015Y-118837519D01*
X164624147Y-118976900D01*
X164688297Y-119131772D01*
X164721000Y-119296184D01*
X164721000Y-119463816D01*
X164688297Y-119628228D01*
X164624147Y-119783100D01*
X164531015Y-119922481D01*
X164412481Y-120041015D01*
X164273100Y-120134147D01*
X164118228Y-120198297D01*
X163953816Y-120231000D01*
X163786184Y-120231000D01*
X163621772Y-120198297D01*
X163466900Y-120134147D01*
X163327519Y-120041015D01*
X163208985Y-119922481D01*
X163115853Y-119783100D01*
X163051703Y-119628228D01*
X163019000Y-119463816D01*
X163019000Y-119296184D01*
X163051703Y-119131772D01*
X163115853Y-118976900D01*
X163208985Y-118837519D01*
X163327519Y-118718985D01*
X163466900Y-118625853D01*
X163621772Y-118561703D01*
X163786184Y-118529000D01*
X163953816Y-118529000D01*
X164118228Y-118561703D01*
G37*
G36*
X178048228Y-116021703D02*
G01*
X178203100Y-116085853D01*
X178342481Y-116178985D01*
X178461015Y-116297519D01*
X178554147Y-116436900D01*
X178618297Y-116591772D01*
X178651000Y-116756184D01*
X178651000Y-116923816D01*
X178618297Y-117088228D01*
X178554147Y-117243100D01*
X178461015Y-117382481D01*
X178342481Y-117501015D01*
X178203100Y-117594147D01*
X178048228Y-117658297D01*
X177883816Y-117691000D01*
X177716184Y-117691000D01*
X177551772Y-117658297D01*
X177396900Y-117594147D01*
X177257519Y-117501015D01*
X177138985Y-117382481D01*
X177045853Y-117243100D01*
X176981703Y-117088228D01*
X176949000Y-116923816D01*
X176949000Y-116756184D01*
X176981703Y-116591772D01*
X177045853Y-116436900D01*
X177138985Y-116297519D01*
X177257519Y-116178985D01*
X177396900Y-116085853D01*
X177551772Y-116021703D01*
X177716184Y-115989000D01*
X177883816Y-115989000D01*
X178048228Y-116021703D01*
G37*
G36*
X172968228Y-116021703D02*
G01*
X173123100Y-116085853D01*
X173262481Y-116178985D01*
X173381015Y-116297519D01*
X173474147Y-116436900D01*
X173538297Y-116591772D01*
X173571000Y-116756184D01*
X173571000Y-116923816D01*
X173538297Y-117088228D01*
X173474147Y-117243100D01*
X173381015Y-117382481D01*
X173262481Y-117501015D01*
X173123100Y-117594147D01*
X172968228Y-117658297D01*
X172803816Y-117691000D01*
X172636184Y-117691000D01*
X172471772Y-117658297D01*
X172316900Y-117594147D01*
X172177519Y-117501015D01*
X172058985Y-117382481D01*
X171965853Y-117243100D01*
X171901703Y-117088228D01*
X171869000Y-116923816D01*
X171869000Y-116756184D01*
X171901703Y-116591772D01*
X171965853Y-116436900D01*
X172058985Y-116297519D01*
X172177519Y-116178985D01*
X172316900Y-116085853D01*
X172471772Y-116021703D01*
X172636184Y-115989000D01*
X172803816Y-115989000D01*
X172968228Y-116021703D01*
G37*
G36*
X160257142Y-112248242D02*
G01*
X160405101Y-112309529D01*
X160538255Y-112398499D01*
X160651501Y-112511745D01*
X160740471Y-112644899D01*
X160801758Y-112792858D01*
X160833000Y-112949925D01*
X160833000Y-113110075D01*
X160801758Y-113267142D01*
X160740471Y-113415101D01*
X160651501Y-113548255D01*
X160538255Y-113661501D01*
X160405101Y-113750471D01*
X160257142Y-113811758D01*
X160100075Y-113843000D01*
X159939925Y-113843000D01*
X159782858Y-113811758D01*
X159634899Y-113750471D01*
X159501745Y-113661501D01*
X159388499Y-113548255D01*
X159299529Y-113415101D01*
X159238242Y-113267142D01*
X159207000Y-113110075D01*
X159207000Y-112949925D01*
X159238242Y-112792858D01*
X159299529Y-112644899D01*
X159388499Y-112511745D01*
X159501745Y-112398499D01*
X159634899Y-112309529D01*
X159782858Y-112248242D01*
X159939925Y-112217000D01*
X160100075Y-112217000D01*
X160257142Y-112248242D01*
G37*
G36*
X167877142Y-112248242D02*
G01*
X168025101Y-112309529D01*
X168158255Y-112398499D01*
X168271501Y-112511745D01*
X168360471Y-112644899D01*
X168421758Y-112792858D01*
X168453000Y-112949925D01*
X168453000Y-113110075D01*
X168421758Y-113267142D01*
X168360471Y-113415101D01*
X168271501Y-113548255D01*
X168158255Y-113661501D01*
X168025101Y-113750471D01*
X167877142Y-113811758D01*
X167720075Y-113843000D01*
X167559925Y-113843000D01*
X167402858Y-113811758D01*
X167254899Y-113750471D01*
X167121745Y-113661501D01*
X167008499Y-113548255D01*
X166919529Y-113415101D01*
X166858242Y-113267142D01*
X166827000Y-113110075D01*
X166827000Y-112949925D01*
X166858242Y-112792858D01*
X166919529Y-112644899D01*
X167008499Y-112511745D01*
X167121745Y-112398499D01*
X167254899Y-112309529D01*
X167402858Y-112248242D01*
X167559925Y-112217000D01*
X167720075Y-112217000D01*
X167877142Y-112248242D01*
G37*
G36*
X156458228Y-110941703D02*
G01*
X156613100Y-111005853D01*
X156752481Y-111098985D01*
X156871015Y-111217519D01*
X156964147Y-111356900D01*
X157028297Y-111511772D01*
X157061000Y-111676184D01*
X157061000Y-111843816D01*
X157028297Y-112008228D01*
X156964147Y-112163100D01*
X156871015Y-112302481D01*
X156752481Y-112421015D01*
X156613100Y-112514147D01*
X156458228Y-112578297D01*
X156293816Y-112611000D01*
X156126184Y-112611000D01*
X155961772Y-112578297D01*
X155806900Y-112514147D01*
X155667519Y-112421015D01*
X155548985Y-112302481D01*
X155455853Y-112163100D01*
X155391703Y-112008228D01*
X155359000Y-111843816D01*
X155359000Y-111676184D01*
X155391703Y-111511772D01*
X155455853Y-111356900D01*
X155548985Y-111217519D01*
X155667519Y-111098985D01*
X155806900Y-111005853D01*
X155961772Y-110941703D01*
X156126184Y-110909000D01*
X156293816Y-110909000D01*
X156458228Y-110941703D01*
G37*
G36*
X167877142Y-109708242D02*
G01*
X168025101Y-109769529D01*
X168158255Y-109858499D01*
X168271501Y-109971745D01*
X168360471Y-110104899D01*
X168421758Y-110252858D01*
X168453000Y-110409925D01*
X168453000Y-110570075D01*
X168421758Y-110727142D01*
X168360471Y-110875101D01*
X168271501Y-111008255D01*
X168158255Y-111121501D01*
X168025101Y-111210471D01*
X167877142Y-111271758D01*
X167720075Y-111303000D01*
X167559925Y-111303000D01*
X167402858Y-111271758D01*
X167254899Y-111210471D01*
X167121745Y-111121501D01*
X167008499Y-111008255D01*
X166919529Y-110875101D01*
X166858242Y-110727142D01*
X166827000Y-110570075D01*
X166827000Y-110409925D01*
X166858242Y-110252858D01*
X166919529Y-110104899D01*
X167008499Y-109971745D01*
X167121745Y-109858499D01*
X167254899Y-109769529D01*
X167402858Y-109708242D01*
X167559925Y-109677000D01*
X167720075Y-109677000D01*
X167877142Y-109708242D01*
G37*
G36*
X160257142Y-109708242D02*
G01*
X160405101Y-109769529D01*
X160538255Y-109858499D01*
X160651501Y-109971745D01*
X160740471Y-110104899D01*
X160801758Y-110252858D01*
X160833000Y-110409925D01*
X160833000Y-110570075D01*
X160801758Y-110727142D01*
X160740471Y-110875101D01*
X160651501Y-111008255D01*
X160538255Y-111121501D01*
X160405101Y-111210471D01*
X160257142Y-111271758D01*
X160100075Y-111303000D01*
X159939925Y-111303000D01*
X159782858Y-111271758D01*
X159634899Y-111210471D01*
X159501745Y-111121501D01*
X159388499Y-111008255D01*
X159299529Y-110875101D01*
X159238242Y-110727142D01*
X159207000Y-110570075D01*
X159207000Y-110409925D01*
X159238242Y-110252858D01*
X159299529Y-110104899D01*
X159388499Y-109971745D01*
X159501745Y-109858499D01*
X159634899Y-109769529D01*
X159782858Y-109708242D01*
X159939925Y-109677000D01*
X160100075Y-109677000D01*
X160257142Y-109708242D01*
G37*
G36*
X152459487Y-107968996D02*
G01*
X152696253Y-108067068D01*
X152696255Y-108067069D01*
X152909339Y-108209447D01*
X153090553Y-108390661D01*
X153218067Y-108581499D01*
X153232932Y-108603747D01*
X153331004Y-108840513D01*
X153381000Y-109091861D01*
X153381000Y-109348139D01*
X153331004Y-109599487D01*
X153260570Y-109769529D01*
X153232931Y-109836255D01*
X153090553Y-110049339D01*
X152909339Y-110230553D01*
X152696255Y-110372931D01*
X152696254Y-110372932D01*
X152696253Y-110372932D01*
X152459487Y-110471004D01*
X152208139Y-110521000D01*
X151951861Y-110521000D01*
X151700513Y-110471004D01*
X151463747Y-110372932D01*
X151463746Y-110372932D01*
X151463745Y-110372931D01*
X151250661Y-110230553D01*
X151069447Y-110049339D01*
X150927069Y-109836255D01*
X150899430Y-109769529D01*
X150828996Y-109599487D01*
X150779000Y-109348139D01*
X150779000Y-109091861D01*
X150828996Y-108840513D01*
X150927068Y-108603747D01*
X150941934Y-108581499D01*
X151069447Y-108390661D01*
X151250661Y-108209447D01*
X151463745Y-108067069D01*
X151463747Y-108067068D01*
X151700513Y-107968996D01*
X151951861Y-107919000D01*
X152208139Y-107919000D01*
X152459487Y-107968996D01*
G37*
G36*
X133216000Y-110356000D02*
G01*
X130944000Y-110356000D01*
X130944000Y-108084000D01*
X133216000Y-108084000D01*
X133216000Y-110356000D01*
G37*
G36*
X167877142Y-107168242D02*
G01*
X168025101Y-107229529D01*
X168158255Y-107318499D01*
X168271501Y-107431745D01*
X168360471Y-107564899D01*
X168421758Y-107712858D01*
X168453000Y-107869925D01*
X168453000Y-108030075D01*
X168421758Y-108187142D01*
X168360471Y-108335101D01*
X168271501Y-108468255D01*
X168158255Y-108581501D01*
X168025101Y-108670471D01*
X167877142Y-108731758D01*
X167720075Y-108763000D01*
X167559925Y-108763000D01*
X167402858Y-108731758D01*
X167254899Y-108670471D01*
X167121745Y-108581501D01*
X167008499Y-108468255D01*
X166919529Y-108335101D01*
X166858242Y-108187142D01*
X166827000Y-108030075D01*
X166827000Y-107869925D01*
X166858242Y-107712858D01*
X166919529Y-107564899D01*
X167008499Y-107431745D01*
X167121745Y-107318499D01*
X167254899Y-107229529D01*
X167402858Y-107168242D01*
X167559925Y-107137000D01*
X167720075Y-107137000D01*
X167877142Y-107168242D01*
G37*
G36*
X160257142Y-107168242D02*
G01*
X160405101Y-107229529D01*
X160538255Y-107318499D01*
X160651501Y-107431745D01*
X160740471Y-107564899D01*
X160801758Y-107712858D01*
X160833000Y-107869925D01*
X160833000Y-108030075D01*
X160801758Y-108187142D01*
X160740471Y-108335101D01*
X160651501Y-108468255D01*
X160538255Y-108581501D01*
X160405101Y-108670471D01*
X160257142Y-108731758D01*
X160100075Y-108763000D01*
X159939925Y-108763000D01*
X159782858Y-108731758D01*
X159634899Y-108670471D01*
X159501745Y-108581501D01*
X159388499Y-108468255D01*
X159299529Y-108335101D01*
X159238242Y-108187142D01*
X159207000Y-108030075D01*
X159207000Y-107869925D01*
X159238242Y-107712858D01*
X159299529Y-107564899D01*
X159388499Y-107431745D01*
X159501745Y-107318499D01*
X159634899Y-107229529D01*
X159782858Y-107168242D01*
X159939925Y-107137000D01*
X160100075Y-107137000D01*
X160257142Y-107168242D01*
G37*
G36*
X178048228Y-105861703D02*
G01*
X178203100Y-105925853D01*
X178342481Y-106018985D01*
X178461015Y-106137519D01*
X178554147Y-106276900D01*
X178618297Y-106431772D01*
X178651000Y-106596184D01*
X178651000Y-106763816D01*
X178618297Y-106928228D01*
X178554147Y-107083100D01*
X178461015Y-107222481D01*
X178342481Y-107341015D01*
X178203100Y-107434147D01*
X178048228Y-107498297D01*
X177883816Y-107531000D01*
X177716184Y-107531000D01*
X177551772Y-107498297D01*
X177396900Y-107434147D01*
X177257519Y-107341015D01*
X177138985Y-107222481D01*
X177045853Y-107083100D01*
X176981703Y-106928228D01*
X176949000Y-106763816D01*
X176949000Y-106596184D01*
X176981703Y-106431772D01*
X177045853Y-106276900D01*
X177138985Y-106137519D01*
X177257519Y-106018985D01*
X177396900Y-105925853D01*
X177551772Y-105861703D01*
X177716184Y-105829000D01*
X177883816Y-105829000D01*
X178048228Y-105861703D01*
G37*
G36*
X172968228Y-105861703D02*
G01*
X173123100Y-105925853D01*
X173262481Y-106018985D01*
X173381015Y-106137519D01*
X173474147Y-106276900D01*
X173538297Y-106431772D01*
X173571000Y-106596184D01*
X173571000Y-106763816D01*
X173538297Y-106928228D01*
X173474147Y-107083100D01*
X173381015Y-107222481D01*
X173262481Y-107341015D01*
X173123100Y-107434147D01*
X172968228Y-107498297D01*
X172803816Y-107531000D01*
X172636184Y-107531000D01*
X172471772Y-107498297D01*
X172316900Y-107434147D01*
X172177519Y-107341015D01*
X172058985Y-107222481D01*
X171965853Y-107083100D01*
X171901703Y-106928228D01*
X171869000Y-106763816D01*
X171869000Y-106596184D01*
X171901703Y-106431772D01*
X171965853Y-106276900D01*
X172058985Y-106137519D01*
X172177519Y-106018985D01*
X172316900Y-105925853D01*
X172471772Y-105861703D01*
X172636184Y-105829000D01*
X172803816Y-105829000D01*
X172968228Y-105861703D01*
G37*
G36*
X156458228Y-105861703D02*
G01*
X156613100Y-105925853D01*
X156752481Y-106018985D01*
X156871015Y-106137519D01*
X156964147Y-106276900D01*
X157028297Y-106431772D01*
X157061000Y-106596184D01*
X157061000Y-106763816D01*
X157028297Y-106928228D01*
X156964147Y-107083100D01*
X156871015Y-107222481D01*
X156752481Y-107341015D01*
X156613100Y-107434147D01*
X156458228Y-107498297D01*
X156293816Y-107531000D01*
X156126184Y-107531000D01*
X155961772Y-107498297D01*
X155806900Y-107434147D01*
X155667519Y-107341015D01*
X155548985Y-107222481D01*
X155455853Y-107083100D01*
X155391703Y-106928228D01*
X155359000Y-106763816D01*
X155359000Y-106596184D01*
X155391703Y-106431772D01*
X155455853Y-106276900D01*
X155548985Y-106137519D01*
X155667519Y-106018985D01*
X155806900Y-105925853D01*
X155961772Y-105861703D01*
X156126184Y-105829000D01*
X156293816Y-105829000D01*
X156458228Y-105861703D01*
G37*
G36*
X160257142Y-104628242D02*
G01*
X160405101Y-104689529D01*
X160538255Y-104778499D01*
X160651501Y-104891745D01*
X160740471Y-105024899D01*
X160801758Y-105172858D01*
X160833000Y-105329925D01*
X160833000Y-105490075D01*
X160801758Y-105647142D01*
X160740471Y-105795101D01*
X160651501Y-105928255D01*
X160538255Y-106041501D01*
X160405101Y-106130471D01*
X160257142Y-106191758D01*
X160100075Y-106223000D01*
X159939925Y-106223000D01*
X159782858Y-106191758D01*
X159634899Y-106130471D01*
X159501745Y-106041501D01*
X159388499Y-105928255D01*
X159299529Y-105795101D01*
X159238242Y-105647142D01*
X159207000Y-105490075D01*
X159207000Y-105329925D01*
X159238242Y-105172858D01*
X159299529Y-105024899D01*
X159388499Y-104891745D01*
X159501745Y-104778499D01*
X159634899Y-104689529D01*
X159782858Y-104628242D01*
X159939925Y-104597000D01*
X160100075Y-104597000D01*
X160257142Y-104628242D01*
G37*
G36*
X167877142Y-104628242D02*
G01*
X168025101Y-104689529D01*
X168158255Y-104778499D01*
X168271501Y-104891745D01*
X168360471Y-105024899D01*
X168421758Y-105172858D01*
X168453000Y-105329925D01*
X168453000Y-105490075D01*
X168421758Y-105647142D01*
X168360471Y-105795101D01*
X168271501Y-105928255D01*
X168158255Y-106041501D01*
X168025101Y-106130471D01*
X167877142Y-106191758D01*
X167720075Y-106223000D01*
X167559925Y-106223000D01*
X167402858Y-106191758D01*
X167254899Y-106130471D01*
X167121745Y-106041501D01*
X167008499Y-105928255D01*
X166919529Y-105795101D01*
X166858242Y-105647142D01*
X166827000Y-105490075D01*
X166827000Y-105329925D01*
X166858242Y-105172858D01*
X166919529Y-105024899D01*
X167008499Y-104891745D01*
X167121745Y-104778499D01*
X167254899Y-104689529D01*
X167402858Y-104628242D01*
X167559925Y-104597000D01*
X167720075Y-104597000D01*
X167877142Y-104628242D01*
G37*
G36*
X169158228Y-100781703D02*
G01*
X169313100Y-100845853D01*
X169452481Y-100938985D01*
X169571015Y-101057519D01*
X169664147Y-101196900D01*
X169728297Y-101351772D01*
X169761000Y-101516184D01*
X169761000Y-101683816D01*
X169728297Y-101848228D01*
X169664147Y-102003100D01*
X169571015Y-102142481D01*
X169452481Y-102261015D01*
X169313100Y-102354147D01*
X169158228Y-102418297D01*
X168993816Y-102451000D01*
X168826184Y-102451000D01*
X168661772Y-102418297D01*
X168506900Y-102354147D01*
X168367519Y-102261015D01*
X168248985Y-102142481D01*
X168155853Y-102003100D01*
X168091703Y-101848228D01*
X168059000Y-101683816D01*
X168059000Y-101516184D01*
X168091703Y-101351772D01*
X168155853Y-101196900D01*
X168248985Y-101057519D01*
X168367519Y-100938985D01*
X168506900Y-100845853D01*
X168661772Y-100781703D01*
X168826184Y-100749000D01*
X168993816Y-100749000D01*
X169158228Y-100781703D01*
G37*
G36*
X179318228Y-100781703D02*
G01*
X179473100Y-100845853D01*
X179612481Y-100938985D01*
X179731015Y-101057519D01*
X179824147Y-101196900D01*
X179888297Y-101351772D01*
X179921000Y-101516184D01*
X179921000Y-101683816D01*
X179888297Y-101848228D01*
X179824147Y-102003100D01*
X179731015Y-102142481D01*
X179612481Y-102261015D01*
X179473100Y-102354147D01*
X179318228Y-102418297D01*
X179153816Y-102451000D01*
X178986184Y-102451000D01*
X178821772Y-102418297D01*
X178666900Y-102354147D01*
X178527519Y-102261015D01*
X178408985Y-102142481D01*
X178315853Y-102003100D01*
X178251703Y-101848228D01*
X178219000Y-101683816D01*
X178219000Y-101516184D01*
X178251703Y-101351772D01*
X178315853Y-101196900D01*
X178408985Y-101057519D01*
X178527519Y-100938985D01*
X178666900Y-100845853D01*
X178821772Y-100781703D01*
X178986184Y-100749000D01*
X179153816Y-100749000D01*
X179318228Y-100781703D01*
G37*
G36*
X156458228Y-95701703D02*
G01*
X156613100Y-95765853D01*
X156752481Y-95858985D01*
X156871015Y-95977519D01*
X156964147Y-96116900D01*
X157028297Y-96271772D01*
X157061000Y-96436184D01*
X157061000Y-96603816D01*
X157028297Y-96768228D01*
X156964147Y-96923100D01*
X156871015Y-97062481D01*
X156752481Y-97181015D01*
X156613100Y-97274147D01*
X156458228Y-97338297D01*
X156293816Y-97371000D01*
X156126184Y-97371000D01*
X155961772Y-97338297D01*
X155806900Y-97274147D01*
X155667519Y-97181015D01*
X155548985Y-97062481D01*
X155455853Y-96923100D01*
X155391703Y-96768228D01*
X155359000Y-96603816D01*
X155359000Y-96436184D01*
X155391703Y-96271772D01*
X155455853Y-96116900D01*
X155548985Y-95977519D01*
X155667519Y-95858985D01*
X155806900Y-95765853D01*
X155961772Y-95701703D01*
X156126184Y-95669000D01*
X156293816Y-95669000D01*
X156458228Y-95701703D01*
G37*
G36*
X142488228Y-94431703D02*
G01*
X142643100Y-94495853D01*
X142782481Y-94588985D01*
X142901015Y-94707519D01*
X142994147Y-94846900D01*
X143058297Y-95001772D01*
X143091000Y-95166184D01*
X143091000Y-95333816D01*
X143058297Y-95498228D01*
X142994147Y-95653100D01*
X142901015Y-95792481D01*
X142782481Y-95911015D01*
X142643100Y-96004147D01*
X142488228Y-96068297D01*
X142323816Y-96101000D01*
X142156184Y-96101000D01*
X141991772Y-96068297D01*
X141836900Y-96004147D01*
X141697519Y-95911015D01*
X141578985Y-95792481D01*
X141485853Y-95653100D01*
X141421703Y-95498228D01*
X141389000Y-95333816D01*
X141389000Y-95166184D01*
X141421703Y-95001772D01*
X141485853Y-94846900D01*
X141578985Y-94707519D01*
X141697519Y-94588985D01*
X141836900Y-94495853D01*
X141991772Y-94431703D01*
X142156184Y-94399000D01*
X142323816Y-94399000D01*
X142488228Y-94431703D01*
G37*
G36*
X152648228Y-94431703D02*
G01*
X152803100Y-94495853D01*
X152942481Y-94588985D01*
X153061015Y-94707519D01*
X153154147Y-94846900D01*
X153218297Y-95001772D01*
X153251000Y-95166184D01*
X153251000Y-95333816D01*
X153218297Y-95498228D01*
X153154147Y-95653100D01*
X153061015Y-95792481D01*
X152942481Y-95911015D01*
X152803100Y-96004147D01*
X152648228Y-96068297D01*
X152483816Y-96101000D01*
X152316184Y-96101000D01*
X152151772Y-96068297D01*
X151996900Y-96004147D01*
X151857519Y-95911015D01*
X151738985Y-95792481D01*
X151645853Y-95653100D01*
X151581703Y-95498228D01*
X151549000Y-95333816D01*
X151549000Y-95166184D01*
X151581703Y-95001772D01*
X151645853Y-94846900D01*
X151738985Y-94707519D01*
X151857519Y-94588985D01*
X151996900Y-94495853D01*
X152151772Y-94431703D01*
X152316184Y-94399000D01*
X152483816Y-94399000D01*
X152648228Y-94431703D01*
G37*
G36*
X164808228Y-93161703D02*
G01*
X164963100Y-93225853D01*
X165102481Y-93318985D01*
X165221015Y-93437519D01*
X165314147Y-93576900D01*
X165378297Y-93731772D01*
X165411000Y-93896184D01*
X165411000Y-94063816D01*
X165378297Y-94228228D01*
X165314147Y-94383100D01*
X165221015Y-94522481D01*
X165102481Y-94641015D01*
X164963100Y-94734147D01*
X164808228Y-94798297D01*
X164643816Y-94831000D01*
X164476184Y-94831000D01*
X164311772Y-94798297D01*
X164156900Y-94734147D01*
X164017519Y-94641015D01*
X163898985Y-94522481D01*
X163805853Y-94383100D01*
X163741703Y-94228228D01*
X163709000Y-94063816D01*
X163709000Y-93896184D01*
X163741703Y-93731772D01*
X163805853Y-93576900D01*
X163898985Y-93437519D01*
X164017519Y-93318985D01*
X164156900Y-93225853D01*
X164311772Y-93161703D01*
X164476184Y-93129000D01*
X164643816Y-93129000D01*
X164808228Y-93161703D01*
G37*
G36*
X163411000Y-94831000D02*
G01*
X161709000Y-94831000D01*
X161709000Y-93129000D01*
X163411000Y-93129000D01*
X163411000Y-94831000D01*
G37*
G36*
X172828015Y-93186973D02*
G01*
X172931879Y-93218479D01*
X172945674Y-93225853D01*
X173027600Y-93269643D01*
X173111501Y-93338499D01*
X173180357Y-93422400D01*
X173216995Y-93490945D01*
X173231521Y-93518121D01*
X173263027Y-93621985D01*
X173271000Y-93702933D01*
X173271000Y-94257067D01*
X173263027Y-94338015D01*
X173231521Y-94441879D01*
X173214654Y-94473435D01*
X173188438Y-94522481D01*
X173180356Y-94537600D01*
X173111501Y-94621501D01*
X173042645Y-94678009D01*
X173027599Y-94690357D01*
X172995491Y-94707519D01*
X172931878Y-94741521D01*
X172828014Y-94773027D01*
X172720000Y-94783666D01*
X172611985Y-94773027D01*
X172508121Y-94741521D01*
X172444509Y-94707519D01*
X172412401Y-94690357D01*
X172399643Y-94679887D01*
X172328499Y-94621501D01*
X172259644Y-94537600D01*
X172251563Y-94522481D01*
X172216086Y-94456109D01*
X172208479Y-94441878D01*
X172204615Y-94429139D01*
X172195239Y-94406503D01*
X172181625Y-94386129D01*
X172164298Y-94368802D01*
X172143923Y-94355188D01*
X172121285Y-94345811D01*
X172097251Y-94341031D01*
X172072747Y-94341031D01*
X172048714Y-94345812D01*
X172026075Y-94355189D01*
X172005701Y-94368803D01*
X171988374Y-94386130D01*
X171974760Y-94406505D01*
X171965388Y-94429131D01*
X171961521Y-94441879D01*
X171944654Y-94473435D01*
X171918438Y-94522481D01*
X171910356Y-94537600D01*
X171841501Y-94621501D01*
X171772645Y-94678009D01*
X171757599Y-94690357D01*
X171725491Y-94707519D01*
X171661878Y-94741521D01*
X171558014Y-94773027D01*
X171450000Y-94783666D01*
X171341985Y-94773027D01*
X171238121Y-94741521D01*
X171174509Y-94707519D01*
X171142401Y-94690357D01*
X171129643Y-94679887D01*
X171058499Y-94621501D01*
X170989644Y-94537600D01*
X170966234Y-94493804D01*
X170952625Y-94473436D01*
X170935298Y-94456109D01*
X170914924Y-94442495D01*
X170892285Y-94433118D01*
X170868252Y-94428337D01*
X170843748Y-94428337D01*
X170819714Y-94433117D01*
X170797076Y-94442494D01*
X170776701Y-94456108D01*
X170759374Y-94473435D01*
X170745760Y-94493809D01*
X170736383Y-94516448D01*
X170731602Y-94540481D01*
X170731000Y-94552734D01*
X170731000Y-94781000D01*
X169629000Y-94781000D01*
X169629000Y-93179000D01*
X170731000Y-93179000D01*
X170731000Y-93407265D01*
X170733402Y-93431651D01*
X170740515Y-93455100D01*
X170752066Y-93476711D01*
X170767611Y-93495653D01*
X170786553Y-93511198D01*
X170808164Y-93522749D01*
X170831613Y-93529862D01*
X170855999Y-93532264D01*
X170880385Y-93529862D01*
X170903834Y-93522749D01*
X170925445Y-93511198D01*
X170944387Y-93495653D01*
X170959932Y-93476711D01*
X170966239Y-93466188D01*
X170989644Y-93422399D01*
X171058500Y-93338499D01*
X171142401Y-93269643D01*
X171224327Y-93225853D01*
X171238122Y-93218479D01*
X171341986Y-93186973D01*
X171450000Y-93176334D01*
X171558015Y-93186973D01*
X171661879Y-93218479D01*
X171675674Y-93225853D01*
X171757600Y-93269643D01*
X171841501Y-93338499D01*
X171910357Y-93422400D01*
X171946995Y-93490945D01*
X171961521Y-93518121D01*
X171965388Y-93530869D01*
X171974760Y-93553496D01*
X171988374Y-93573870D01*
X172005701Y-93591197D01*
X172026075Y-93604811D01*
X172048714Y-93614188D01*
X172072747Y-93618969D01*
X172097251Y-93618969D01*
X172121285Y-93614189D01*
X172143924Y-93604812D01*
X172164298Y-93591198D01*
X172181625Y-93573871D01*
X172195239Y-93553497D01*
X172204617Y-93530857D01*
X172204919Y-93529862D01*
X172208480Y-93518121D01*
X172208481Y-93518118D01*
X172259643Y-93422401D01*
X172328500Y-93338499D01*
X172412401Y-93269643D01*
X172494327Y-93225853D01*
X172508122Y-93218479D01*
X172611986Y-93186973D01*
X172720000Y-93176334D01*
X172828015Y-93186973D01*
G37*
G36*
X156458228Y-90621703D02*
G01*
X156613100Y-90685853D01*
X156752481Y-90778985D01*
X156871015Y-90897519D01*
X156964147Y-91036900D01*
X157028297Y-91191772D01*
X157061000Y-91356184D01*
X157061000Y-91523816D01*
X157028297Y-91688228D01*
X156964147Y-91843100D01*
X156871015Y-91982481D01*
X156752481Y-92101015D01*
X156613100Y-92194147D01*
X156458228Y-92258297D01*
X156293816Y-92291000D01*
X156126184Y-92291000D01*
X155961772Y-92258297D01*
X155806900Y-92194147D01*
X155667519Y-92101015D01*
X155548985Y-91982481D01*
X155455853Y-91843100D01*
X155391703Y-91688228D01*
X155359000Y-91523816D01*
X155359000Y-91356184D01*
X155391703Y-91191772D01*
X155455853Y-91036900D01*
X155548985Y-90897519D01*
X155667519Y-90778985D01*
X155806900Y-90685853D01*
X155961772Y-90621703D01*
X156126184Y-90589000D01*
X156293816Y-90589000D01*
X156458228Y-90621703D01*
G37*
G36*
X146298228Y-90621703D02*
G01*
X146453100Y-90685853D01*
X146592481Y-90778985D01*
X146711015Y-90897519D01*
X146804147Y-91036900D01*
X146868297Y-91191772D01*
X146901000Y-91356184D01*
X146901000Y-91523816D01*
X146868297Y-91688228D01*
X146804147Y-91843100D01*
X146711015Y-91982481D01*
X146592481Y-92101015D01*
X146453100Y-92194147D01*
X146298228Y-92258297D01*
X146133816Y-92291000D01*
X145966184Y-92291000D01*
X145801772Y-92258297D01*
X145646900Y-92194147D01*
X145507519Y-92101015D01*
X145388985Y-91982481D01*
X145295853Y-91843100D01*
X145231703Y-91688228D01*
X145199000Y-91523816D01*
X145199000Y-91356184D01*
X145231703Y-91191772D01*
X145295853Y-91036900D01*
X145388985Y-90897519D01*
X145507519Y-90778985D01*
X145646900Y-90685853D01*
X145801772Y-90621703D01*
X145966184Y-90589000D01*
X146133816Y-90589000D01*
X146298228Y-90621703D01*
G37*
G36*
X164781000Y-73341000D02*
G01*
X162879000Y-73341000D01*
X162879000Y-71439000D01*
X164781000Y-71439000D01*
X164781000Y-73341000D01*
G37*
G36*
X144461000Y-73341000D02*
G01*
X142559000Y-73341000D01*
X142559000Y-71439000D01*
X144461000Y-71439000D01*
X144461000Y-73341000D01*
G37*
G36*
X164107395Y-68935546D02*
G01*
X164280466Y-69007234D01*
X164280467Y-69007235D01*
X164436227Y-69111310D01*
X164568690Y-69243773D01*
X164568691Y-69243775D01*
X164672766Y-69399534D01*
X164744454Y-69572605D01*
X164781000Y-69756333D01*
X164781000Y-69943667D01*
X164744454Y-70127395D01*
X164672766Y-70300466D01*
X164672765Y-70300467D01*
X164568690Y-70456227D01*
X164436227Y-70588690D01*
X164357818Y-70641081D01*
X164280466Y-70692766D01*
X164107395Y-70764454D01*
X163923667Y-70801000D01*
X163736333Y-70801000D01*
X163552605Y-70764454D01*
X163379534Y-70692766D01*
X163302182Y-70641081D01*
X163223773Y-70588690D01*
X163091310Y-70456227D01*
X162987235Y-70300467D01*
X162987234Y-70300466D01*
X162915546Y-70127395D01*
X162879000Y-69943667D01*
X162879000Y-69756333D01*
X162915546Y-69572605D01*
X162987234Y-69399534D01*
X163091309Y-69243775D01*
X163091310Y-69243773D01*
X163223773Y-69111310D01*
X163379533Y-69007235D01*
X163379534Y-69007234D01*
X163552605Y-68935546D01*
X163736333Y-68899000D01*
X163923667Y-68899000D01*
X164107395Y-68935546D01*
G37*
G36*
X143787395Y-68935546D02*
G01*
X143960466Y-69007234D01*
X143960467Y-69007235D01*
X144116227Y-69111310D01*
X144248690Y-69243773D01*
X144248691Y-69243775D01*
X144352766Y-69399534D01*
X144424454Y-69572605D01*
X144461000Y-69756333D01*
X144461000Y-69943667D01*
X144424454Y-70127395D01*
X144352766Y-70300466D01*
X144352765Y-70300467D01*
X144248690Y-70456227D01*
X144116227Y-70588690D01*
X144037818Y-70641081D01*
X143960466Y-70692766D01*
X143787395Y-70764454D01*
X143603667Y-70801000D01*
X143416333Y-70801000D01*
X143232605Y-70764454D01*
X143059534Y-70692766D01*
X142982182Y-70641081D01*
X142903773Y-70588690D01*
X142771310Y-70456227D01*
X142667235Y-70300467D01*
X142667234Y-70300466D01*
X142595546Y-70127395D01*
X142559000Y-69943667D01*
X142559000Y-69756333D01*
X142595546Y-69572605D01*
X142667234Y-69399534D01*
X142771309Y-69243775D01*
X142771310Y-69243773D01*
X142903773Y-69111310D01*
X143059533Y-69007235D01*
X143059534Y-69007234D01*
X143232605Y-68935546D01*
X143416333Y-68899000D01*
X143603667Y-68899000D01*
X143787395Y-68935546D01*
G37*
M02*
