M48
; DRILL file {KiCad (5.1.5-0-10_14)} date 2019 December 18, Wednesday 22:02:08
; FORMAT={-:-/ absolute / inch / decimal}
; #@! TF.CreationDate,2019-12-18T22:02:08+01:00
; #@! TF.GenerationSoftware,Kicad,Pcbnew,(5.1.5-0-10_14)
; #@! TF.FileFunction,Plated,1,2,PTH
FMAT,2
INCH
T1C0.0217
T2C0.0300
T3C0.0315
T4C0.0354
T5C0.0461
T6C0.0591
%
G90
G05
T1
X6.7Y-3.7
X6.75Y-3.7
X6.8Y-3.7
T2
X6.3Y-4.15
X6.3Y-4.25
X6.3Y-4.35
X6.3Y-4.45
X6.6Y-4.15
X6.6Y-4.25
X6.6Y-4.35
X6.6Y-4.45
T3
X5.6Y-3.75
X6.0Y-3.75
X6.4Y-3.7
X6.4787Y-3.7
X6.4516Y-4.7
X6.55Y-4.7
X6.65Y-4.0
X7.05Y-4.0
X6.15Y-4.4
X6.15Y-4.8
X5.75Y-3.6
X6.15Y-3.6
X7.0Y-4.2
X7.0Y-4.6
X6.8Y-4.2
X6.8Y-4.6
X6.15Y-3.8
X6.15Y-4.2
T4
X5.7Y-4.85
X5.7984Y-4.85
X5.8969Y-4.85
X6.45Y-2.75
X6.45Y-2.85
X5.65Y-2.75
X5.65Y-2.85
T5
X5.2Y-4.3
T6
X5.9874Y-4.3
T0
M30
